<ttFont>
<head>
    <!-- Most of this table will be recalculated by the compiler -->
    <tableVersion value="1.0"/>
    <fontRevision value="1.0"/>
    <checkSumAdjustment value="0xd6bdff41"/>
    <magicNumber value="0x5f0f3cf5"/>
    <flags value="00000000 00001011"/>
    <unitsPerEm value="1024"/>
    <created value="Thu Jul 16 16:05:57 2015"/>
    <modified value="Thu Jul 16 16:05:57 2015"/>
    <xMin value="-594"/>
    <yMin value="-242"/>
    <xMax value="1130"/>
    <yMax value="757"/>
    <macStyle value="00000000 00000000"/>
    <lowestRecPPEM value="8"/>
    <fontDirectionHint value="2"/>
    <indexToLocFormat value="0"/>
    <glyphDataFormat value="0"/>
  </head>
          <CharString index="0">
            30 25 25 30 30 25 -25 -30 -30 -25 -25 -30 -30 -25 25 30 vhcurveto
            return
          </CharString>
          <CharString index="1">
            -46 38 -38 46 46 38 38 46 46 -38 38 -46 -46 -38 -38 -46 vhcurveto
            return
          </CharString>
          <CharString index="2">
            -70 -31 -4 -41 0 -37 rrcurveto
            return
          </CharString>
          <CharString index="3">
            -29 528 hlineto
            0 37 9 30 18 21 15 17 18 12 20 5 rrcurveto
            return
          </CharString>
          <CharString index="4">
            -51 -34 -86 -21 -104 0 rrcurveto
            -164 -85 66 98 88 61 61 108 hvcurveto
            114 hlineto
            -1 44 -28 40 -46 0 -36 0 -9 -17 -8 -18 -5 -11 -11 -16 -25 0 rrcurveto
            -22 -19 14 24 41 48 23 57 84 52 -51 -92 hvcurveto
            0 -1 0 -1 0 -1 rrcurveto
            -95 hlineto
            -122 -17 -87 -36 -76 48 -65 136 hvcurveto
            113 0 70 27 43 33 rrcurveto
            return
          </CharString>
          <CharString index="5">
            -13 0 -15 2 -16 5 rrcurveto
            28 vlineto
            9 -5 11 -1 7 0 29 0 24 20 0 38 0 24 -4 15 -12 19 -11 17 -16 9 0 27 0 2 1 2 0 2 rrcurveto
            16 14 19 4 rlineto
            -7 -4 -5 -4 0 -11 0 -34 81 -15 0 -73 0 -52 -47 -29 -51 0 rrcurveto
            return
          </CharString>
          <CharString index="6">
            -26 208 vlineto
            -53 -59 -74 -121 0 -119 0 -87 38 -74 85 0 41 0 31 10 27 31 rrcurveto
            -4 18 rlineto
            -13 -3 -12 -2 -13 0 -58 0 -53 39 0 104 0 79 25 94 68 100 1 9 1 5 1 2 rrcurveto
            return
          </CharString>
          <CharString index="7">
            -24 201 vlineto
            -133 -97 0 -19 163 0 rlineto
            -65 -44 -80 -77 0 -90 0 -79 48 -57 91 0 25 0 27 6 25 11 rrcurveto
            25 vlineto
            -89 -58 32 87 hvcurveto
            0 83 67 72 46 33 rrcurveto
            22 -150 vlineto
            127 94 0 22 rlineto
            return
          </CharString>
          <CharString index="8">
            -36 29 -28 36 35 29 28 36 36 -29 28 -35 -36 -29 -28 -36 vhcurveto
            return
          </CharString>
          <CharString index="9">
            -22 -18 -21 -35 0 -53 rrcurveto
            -46 26 -38 46 34 18 23 29 vhcurveto
            0 17 -7 16 -13 14 rrcurveto
            return
          </CharString>
          <CharString index="10">
            -1 5 0 2 0 5 rrcurveto
            49 28 34 66 103 31 -116 -96 -119 -43 -103 -105 -74 -37 56 66 vhcurveto
            0 12 1 12 3 13 rrcurveto
            26 hlineto
            -2 -11 -1 -10 0 -11 rrcurveto
            -54 27 -45 53 59 23 74 138 112 -27 57 -48 -34 -21 -18 -39 vhcurveto
            0 -2 0 -3 0 -2 rrcurveto
            return
          </CharString>
          <CharString index="11">
            24 -13 12 -18 0 -24 rrcurveto
            -50 -44 -26 -50 -63 -39 49 60 vhcurveto
            0 49 16 34 21 24 rrcurveto
            return
          </CharString>
          <CharString index="12">
            98 70 58 108 hvcurveto
            0 55 -31 53 -47 23 15 9 14 23 0 21 rrcurveto
            58 -49 24 -54 -75 -48 -57 -84 vhcurveto
            0 -4 0 -1 0 -4 38 7 29 2 32 0 rrcurveto
            76 63 -36 -80 -60 -51 -44 -69 -62 -61 25 56 hvcurveto
            30 -27 -30 vlineto
            -50 -53 -31 -56 -70 -53 45 59 80 74 36 69 vhcurveto
            29 0 37 -6 15 -3 0 6 0 5 0 3 rrcurveto
            73 -38 63 -88 vhcurveto
            return
          </CharString>
          <CharString index="13">
            -55 -50 -26 -47 -26 20 -10 16 hvcurveto
            22 0 10 13 6 19 6 16 11 24 41 0 37 0 32 -37 0 -45 rrcurveto
            -3 vlineto
            -13 4 -28 2 -13 0 rrcurveto
            return
          </CharString>
          <CharString index="14">
            -92 -86 -55 -107 -78 57 -77 95 hvcurveto
            68 0 41 31 21 52 rrcurveto
            19 -51 43 -31 65 0 rrcurveto
            return
          </CharString>
          <CharString index="15">
            5 55 31 28 52 0 36 0 34 -14 0 -33 0 -12 -3 -15 -12 -13 -22 7 -24 3 -34 0 -24 0 -28 -3 -11 -3 rrcurveto
            return
          </CharString>
          <CharString index="16">
            0 2 0 0 0 2 rrcurveto
            62 23 50 52 43 27 -46 -90 vhcurveto
            -37 0 -41 -6 -26 -11 -44 -19 -22 -33 0 -47 rrcurveto
            return
          </CharString>
          <CharString index="17">
            34 0 26 18 12 0 7 0 5 -5 3 -9 rrcurveto
            30 hlineto
            -1 6 0 7 0 7 rrcurveto
            return
          </CharString>
          <CharString index="18">
            0 29 17 92 0 59 rrcurveto
            95 -34 95 -87 -74 -36 -64 -80 vhcurveto
            0 -3 0 -1 0 -3 rrcurveto
            return
          </CharString>
          <CharString index="19">
            0 -2 0 -4 0 -3 rrcurveto
            return
          </CharString>
          <CharString index="20">
            0 -18 -1 -20 0 -32 0 -37 1 -26 2 -13 -3 2 -3 1 -3 0 rrcurveto
            return
          </CharString>
          <CharString index="21">
            -10 0 -27 -15 -26 0 -41 0 -29 37 0 42 0 44 24 23 36 11 29 9 36 1 15 0 rrcurveto
            return
          </CharString>
          <CharString index="22">
            0 2 0 0 0 2 rrcurveto
            62 23 50 52 43 27 -46 -90 vhcurveto
            -37 0 -41 -6 -26 -11 -44 -19 -22 -33 0 -47 0 -57 39 -50 59 0 rrcurveto
            return
          </CharString>
          <CharString index="23">
            -119 -81 -77 -153 -90 -107 23 86 vhcurveto
            0 26 13 26 27 17 25 16 40 12 44 0 rrcurveto
            64 hlineto
            0 3 0 7 0 3 rrcurveto
            73 -38 69 -88 vhcurveto
            return
          </CharString>
          <CharString index="24">
            -55 -50 -26 -47 -26 20 -10 16 hvcurveto
            22 0 10 13 6 19 rrcurveto
            return
          </CharString>
          <CharString index="25">
            6 16 11 24 39 0 37 0 32 -39 0 -48 0 -2 0 -2 0 -2 rrcurveto
            -12 hlineto
            -37 0 -41 -12 -34 -12 -26 -5 -19 -11 -16 -14 -23 -20 -10 -32 0 -31 rrcurveto
            -119 110 -46 121 183 86 117 128 vhcurveto
            0 70 -13 48 -39 67 -36 62 -71 72 -61 33 rrcurveto
            return
          </CharString>
          <CharString index="26">
            -27 -31 -15 -36 0 -50 0 -66 37 -55 63 0 43 0 30 20 15 33 rrcurveto
            25 -36 17 -52 0 -57 rrcurveto
            return
          </CharString>
          <CharString index="27">
            162 0 -30 25 -245 0 0 -32 rlineto
            16 3 26 3 71 1 rrcurveto
            return
          </CharString>
          <CharString index="28">
            -10 -34 -28 -11 -24 0 -57 0 -20 40 0 49 0 35 9 23 12 18 38 -28 50 -46 30 -46 rrcurveto
            return
          </CharString>
          <CharString index="29">
            26 25 21 30 30 25 -21 -26 -26 -25 -21 -30 -30 -25 21 26 vhcurveto
            return
          </CharString>
          <CharString index="30">
            -12 134 -123 92 -148 0 rrcurveto
            -140 -128 -85 -135 -128 101 -84 135 143 79 68 100 100 -85 54 -102 -56 -45 -32 -48 -44 43 -32 46 43 44 26 48 hvcurveto
            0 16 -6 17 -13 14 49 -9 46 -34 0 -55 rrcurveto
            -84 -97 -34 -89 -106 -87 71 96 102 111 64 114 vhcurveto
            129 0 107 -80 18 -118 rrcurveto
            return
          </CharString>
          <CharString index="31">
            26 21 21 26 26 21 -21 -26 -26 -21 -21 -26 -26 -21 21 26 vhcurveto
            return
          </CharString>
          <CharString index="32">
            2 2 1 3 0 2 rrcurveto
            return
          </CharString>
          <CharString index="33">
            0 -22 28 -4 0 -12 0 -9 -52 -14 -32 -12 rrcurveto
            return
          </CharString>
          <CharString index="34">
            7 17 -4 0 7 23 6 21 22 8 14 0 25 0 12 -23 0 -24 0 -6 -1 -10 -1 -5 -30 -27 -28 -29 -26 -36 rrcurveto
            return
          </CharString>
          <CharString index="35">
            49 -37 34 -52 -57 -50 -39 -54 -12 6 -31 34 vhcurveto
            15 0 15 8 7 18 rrcurveto
            return
          </CharString>
          <CharString index="36">
            -6 17 -3 26 0 12 rrcurveto
            116 93 48 80 92 39 -34 -54 vhcurveto
            0 -38 -27 -48 -52 -62 -42 -50 -29 -39 -13 -13 rrcurveto
            36 -3 rlineto
            return
          </CharString>
          <CharString index="37">
            44 -29 29 -46 vhcurveto
            -27 0 -28 -16 -8 -28 rrcurveto
            return
          </CharString>
          <CharString index="38">
            5 55 31 28 52 0 36 0 34 -14 0 -33 0 -12 -3 -15 -12 -13 rrcurveto
            return
          </CharString>
          <CharString index="39">
            167 0 -30 25 -271 0 0 -32 rlineto
            16 3 47 3 71 1 rrcurveto
            return
          </CharString>
          <CharString index="40">
            115 44 -50 -53 -89 -116 -26 -106 -103 -119 26 89 47 40 57 119 hvcurveto
            9 0 12 -1 12 -1 3 13 1 13 0 12 rrcurveto
            67 -45 39 -67 -47 -51 -23 -49 -25 16 -13 19 vhcurveto
            27 0 10 17 11 24 7 15 15 13 22 0 37 0 17 -29 0 -31 0 -7 -1 -6 -1 -7 -8 1 -1 0 -18 0 rrcurveto
            -112 -63 -63 -79 -126 127 -44 138 126 125 45 123 hvcurveto
            0 60 -32 43 -44 20 rrcurveto
            return
          </CharString>
          <CharString index="41">
            3 13 1 13 0 12 rrcurveto
            67 -45 39 -67 -47 -51 -23 -49 -25 16 -13 19 vhcurveto
            27 0 10 17 11 24 7 15 15 13 22 0 37 0 17 -29 0 -31 0 -7 -1 -6 -1 -7 -8 1 -1 0 -18 0 rrcurveto
            -112 -63 -63 -79 -126 127 -44 138 126 125 45 123 hvcurveto
            0 59 -31 44 -44 18 rrcurveto
            return
          </CharString>
          <CharString index="42">
            31 13 15 24 0 30 0 56 -52 22 -41 0 -2 0 -16 0 -4 -1 11 31 18 25 24 25 49 50 61 5 0 27 0 10 -8 11 -16 0 rrcurveto
            -23 0 -31 -13 -45 -52 -32 -37 -23 -43 -15 -42 -53 -9 -29 -37 0 -53 0 -15 2 -15 5 -16 14 1 19 3 22 0 rrcurveto
            return
          </CharString>
          <CharString index="43">
            115 44 -52 -51 -89 -116 -26 -106 -103 -119 26 89 47 40 57 119 hvcurveto
            9 0 12 -1 12 -1 rrcurveto
            return
          </CharString>
          <CharString index="44">
            0 -25 14 -19 12 -7 -12 2 -10 0 -7 0 -13 0 -9 -1 -8 -1 -2 9 -1 9 0 7 0 31 16 22 26 12 -3 -9 -3 -11 0 -19 rrcurveto
            return
          </CharString>
          <CharString index="45">
            10 10 12 4 13 0 15 0 13 -5 9 -11 10 -10 5 -12 0 -13 0 -13 -5 -12 -10 -8 -9 -10 -12 -4 -13 0 -14 0 -12 5 -10 9 rrcurveto
            -11 10 -5 12 0 15 rrcurveto
            return
          </CharString>
          <CharString index="46">
            103 70 -46 -83 -36 -20 -52 -62 -58 -27 26 65 hvcurveto
            1 -26 -1 vlineto
            -60 -31 -31 -51 vhcurveto
            -57 0 -24 29 -29 0 -7 0 -6 -2 -6 -3 11 37 19 39 29 41 16 23 16 19 17 15 rrcurveto
            return
          </CharString>
          <CharString index="47">
            -22 6 -23 0 -9 0 -139 0 -73 -80 0 -132 0 -101 42 -87 66 -33 rrcurveto
            30 vlineto
            -52 45 -27 62 0 81 0 101 46 63 75 18 17 6 78 10 21 11 rrcurveto
            return
          </CharString>
          <CharString index="48">
            -18 95 -43 44 -86 0 rrcurveto
            -55 -40 -25 -36 -21 13 -15 25 hvcurveto
            15 0 16 8 10 22 9 18 16 12 19 0 44 0 29 -33 10 -46 rrcurveto
            -120 hlineto
            -119 -73 -43 -105 -100 72 -70 131 hvcurveto
            27 0 23 1 35 10 -47 -63 -23 -50 0 -39 0 -57 35 -41 71 -2 22 0 18 1 14 3 rrcurveto
            28 vlineto
            -64 15 -39 25 0 66 0 76 70 67 31 36 rrcurveto
            -23 17 rlineto
            -40 -46 -37 -19 -46 0 rrcurveto
            -83 -70 62 84 84 46 37 88 hvcurveto
            return
          </CharString>
          <CharString index="49">
            -73 -45 -36 -69 hvcurveto
            0 -10 1 -10 2 -11 23 4 24 3 23 0 rrcurveto
            78 68 -26 -73 -95 -126 -39 -107 -114 -124 36 94 75 71 26 77 hvcurveto
            1 0 35 -2 18 -2 3 13 1 12 0 11 rrcurveto
            return
          </CharString>
          <CharString index="50">
            67 -44 33 -73 -55 -48 -25 -44 -25 20 -12 19 vhcurveto
            28 0 13 18 4 14 5 19 12 16 32 0 31 0 26 -20 0 -39 0 -4 -1 -3 0 -4 -13 1 -11 1 -13 0 rrcurveto
            return
          </CharString>
          <CharString index="51">
            -108 -68 -52 -91 -138 128 -46 148 141 126 56 130 hvcurveto
            0 55 -20 38 -40 24 rrcurveto
            return
          </CharString>
          <CharString index="52">
            19 14 8 17 0 20 rrcurveto
            39 -36 40 -66 vhcurveto
            return
          </CharString>
          <CharString index="53">
            -25 9 -28 4 -33 0 -16 0 -16 -1 -17 -2 -1 4 0 3 0 4 rrcurveto
            45 36 24 43 47 26 -25 -29 vhcurveto
            0 -13 -5 -12 -11 -11 rrcurveto
            return
          </CharString>
          <CharString index="54">
            21 -17 63 -18 0 -56 0 -26 -16 -20 -34 0 -11 0 -17 3 -6 3 rrcurveto
            return
          </CharString>
          <CharString index="55">
            26 39 0 151 rlineto
            9 -3 17 -3 17 0 51 0 27 39 0 35 0 82 -91 4 -56 47 rrcurveto
            return
          </CharString>
        <CharString name=".notdef">
          -112 0 51 444 51 hstem
          51 51 308 51 vstem
          51 hmoveto
          410 546 -410 hlineto
          51 -495 rmoveto
          444 308 -444 vlineto
          endchar
        </CharString>
        <CharString name="NameMe.10">
          270 -1 72 -72 29 -11 26 152 27 69 25 42 35 2 36 hstemhm
          31 38 -7 74 127 30 8 27 192 39 12 37 9 30 139 45 -44 61 hintmask 1001111101111100
          440 hmoveto
          -95 callsubr
          hintmask 1001111011111100
          -94 callsubr
          hintmask 1001111101111100
          -93 callsubr
          -78 310 rmoveto
          -92 callsubr
          280 -68 rmoveto
          -91 callsubr
          hintmask 0101111001111110
          -57 39 -50 59 vhcurveto
          hintmask 0011111001111110
          -90 callsubr
          hintmask 0101111001111101
          -89 callsubr
          170 -47 rmoveto
          -88 callsubr
          hintmask 0011111001111110
          -87 callsubr
          hintmask 0101111001111101
          -86 callsubr
          endchar
        </CharString>
        <CharString name="si_Ca.halant">
          -3 0 71 206 25 93 36 62 26 71 39 hstemhm
          64 37 -18 74 -59 41 -13 37 124 32 220 38 hintmask 1111100011100000
          160 508 rmoveto
          -75 callsubr
          hintmask 1111100101100000
          0 11 -24 5 0 12 0 24 73 23 72 0 116 0 94 -53 33 -115 -48 63 -92 34 -108 0 rrcurveto
          -46 0 -40 -5 -33 -6 rrcurveto
          -118 -66 rmoveto
          81 38 72 13 76 0 175 0 93 -80 0 -115 0 -4 0 -7 0 -8 rrcurveto
          38 -12 rlineto
          0 34 -5 42 -3 13 -12 134 -71 139 -208 0 -115 0 -65 -46 0 -37 rrcurveto
          hintmask 1111100011100000
          -74 callsubr
          277 -196 rmoveto
          0 3 0 7 0 3 rrcurveto
          86 -43 56 -88 vhcurveto
          hintmask 1111101001100000
          -55 -50 -26 -47 -26 20 -10 16 hvcurveto
          22 0 10 13 7 19 5 16 8 24 45 0 37 0 34 -33 0 -54 0 -2 0 -2 0 -2 rrcurveto
          -17 hlineto
          -37 0 -41 -12 -34 -12 -26 -5 -19 -11 -16 -14 rrcurveto
          hintmask 1111110001100000
          -23 -20 -10 -32 0 -31 rrcurveto
          -119 110 -46 121 183 99 114 160 vhcurveto
          -38 30 rlineto
          -148 -88 -85 -153 -90 -107 23 86 vhcurveto
          0 26 13 26 27 17 25 16 40 12 44 0 rrcurveto
          -102 hmoveto
          -68 callsubr
          endchar
        </CharString>
        <CharString name="si_Cha.halant">
          -26 0 71 89 27 103 22 79 41 -22 25 115 25 hstemhm
          33 37 167 29 21 27 -14 26 5 28 51 37 56 28 -17 35 hintmask 1110011101110000
          326 712 rmoveto
          -53 callsubr
          -26 -215 rmoveto
          -52 callsubr
          173 -466 rmoveto
          -39 18 -46 3 -38 0 -16 0 -12 -1 -7 -1 rrcurveto
          hintmask 1110111110111000
          -1 4 0 5 0 5 rrcurveto
          65 44 21 44 62 39 -24 -63 -51 -35 -85 -51 -40 -18 27 47 vhcurveto
          0 103 47 94 55 54 56 55 51 -1 0 30 0 10 -8 11 -16 0 -26 0 -35 -25 -38 -43 -45 -50 -36 -66 -19 -69 -8 -29 -6 -38 0 -35 rrcurveto
          -70 35 -32 49 82 34 108 57 77 -53 33 -72 -70 -49 -34 -82 vhcurveto
          0 -11 3 -16 2 -7 14 1 27 3 22 0 rrcurveto
          hintmask 1111011110110100
          -67 callsubr
          endchar
        </CharString>
        <CharString name="si_DdI">
          400 endchar
        </CharString>
        <CharString name="si_DdIi">
          23 0 71 217 27 76 41 43 24 112 59 hstemhm
          46 37 -6 41 181 27 57 33 110 35 1 36 hintmask 1111110111100000
          261 315 rmoveto
          -246 -27 112 hlineto
          -50 -22 -31 -48 0 -60 0 -85 65 -73 87 0 48 0 36 20 31 39 31 -38 25 -21 62 0 121 0 46 141 0 114 0 111 -45 76 -71 33 rrcurveto
          43 36 36 41 93 -117 25 -137 hvcurveto
          hintmask 1111101111100000
          -139 -91 -31 -75 hvcurveto
          0 -103 165 20 82 -5 131 -8 107 -25 0 -176 rrcurveto
          -95 -35 -101 -103 -50 -48 26 46 vhcurveto
          35 -27 -35 vlineto
          -48 -52 -24 -49 vhcurveto
          hintmask 1111110111100000
          -70 -45 45 60 58 53 54 88 hvcurveto
          71 hlineto
          80 -46 64 -84 -42 -47 -18 -40 -21 17 -14 20 vhcurveto
          14 0 13 5 11 19 14 24 15 4 18 0 rrcurveto
          30 0 30 -33 3 -43 rrcurveto
          155 238 rmoveto
          30 25 24 30 33 22 -24 -29 -34 -25 -21 -29 -30 -26 24 30 vhcurveto
          -4 -59 rmoveto
          -51 9 -78 1 -42 0 rrcurveto
          hintmask 1111101111100000
          -42 -81 3 49 52 114 3 62 hvcurveto
          37 0 40 -2 33 -3 -14 -16 -7 -17 0 -19 0 -25 11 -23 18 -12 rrcurveto
          endchar
        </CharString>
        <CharString name="si_Ja.halant">
          -26 0 71 218 22 80 41 -26 28 116 25 hstemhm
          33 37 167 29 34 26 33 29 22 37 42 31 -6 35 hintmask 1100111111000000
          326 712 rmoveto
          -53 callsubr
          -26 -215 rmoveto
          -52 callsubr
          -38 -469 rmoveto
          3 13 1 13 0 12 rrcurveto
          hintmask 1110111111010000
          67 -45 39 -67 -47 -51 -23 -49 -25 16 -13 19 vhcurveto
          27 0 10 17 11 24 7 15 15 13 22 0 37 0 17 -29 0 -31 0 -7 -1 -6 -1 -7 -8 1 -1 0 -18 0 rrcurveto
          -112 -63 -63 -79 -126 127 -44 138 126 125 45 123 hvcurveto
          0 59 -31 44 -44 18 rrcurveto
          hintmask 1101111111100000
          -65 callsubr
          hintmask 1110111111010000
          -64 callsubr
          97 72 rmoveto
          -63 callsubr
          29 -1 rmoveto
          0 13 5 12 9 8 rrcurveto
          hintmask 1101111111100000
          -62 callsubr
          endchar
        </CharString>
        <CharString name="si_Kh.halant">
          6 -1 30 -29 71 -17 62 -1 30 175 76 97 26 71 39 hstemhm
          32 31 35 41 -13 37 16 31 157 46 130 39 hintmask 0000111101111000
          160 508 rmoveto
          -75 callsubr
          hintmask 0000111110111000
          0 11 -24 5 0 12 0 24 73 23 72 0 116 0 94 -53 33 -115 -58 68 -82 29 -108 0 rrcurveto
          -46 0 -40 -5 -33 -6 rrcurveto
          -118 -66 rmoveto
          81 38 77 13 76 0 169 0 98 -84 0 -126 0 -4 0 4 0 -8 rrcurveto
          39 -8 rlineto
          0 34 -7 37 -6 18 -12 134 -71 139 -208 0 -115 0 -65 -46 0 -37 rrcurveto
          hintmask 0000111101111000
          -74 callsubr
          51 -401 rmoveto
          hintmask 1001111100111000
          24 19 19 24 24 19 -19 -24 -24 -19 -19 -24 -24 -19 19 24 vhcurveto
          -21 29 rmoveto
          -71 callsubr
          hintmask 0010111100111000
          42 55 26 20 13 0 rrcurveto
          hintmask 0100111100111000
          27 0 4 -54 64 0 rrcurveto
          100 66 139 133 hvcurveto
          -39 8 rlineto
          -93 -60 -116 -52 vhcurveto
          hintmask 1010111100111000
          -44 0 -3 45 -29 0 -3 0 -3 0 -3 -1 39 38 28 48 0 57 rrcurveto
          85 -80 53 -93 -116 -92 -74 -139 -75 24 -109 85 39 30 38 35 vhcurveto
          hintmask 0001111100111000
          -70 callsubr
          endchar
        </CharString>
        <CharString name="space">
          -424 endchar
        </CharString>
        <CharString name="uni0D82">
          -260 25 49 204 27 hstem
          30 37 212 37 vstem
          67 176 rmoveto
          56 47 46 59 59 47 -46 -56 -56 -47 -46 -59 -59 -47 46 56 vhcurveto
          -37 -11 rmoveto
          -77 64 -63 79 79 64 63 77 77 -64 63 -79 -79 -64 -63 -77 vhcurveto
          endchar
        </CharString>
        <CharString name="uni0D83">
          -376 26 30 110 28 34 30 110 28 hstem
          31 29 110 29 vstem
          60 111 rmoveto
          -107 callsubr
          -29 -1 rmoveto
          -106 callsubr
          29 203 rmoveto
          -107 callsubr
          -29 -1 rmoveto
          -106 callsubr
          endchar
        </CharString>
        <CharString name="uni0D85">
          -51 -4 27 177 29 58 22 84 40 hstemhm
          33 80 203 31 12 29 -4 4 33 24 19 62 hintmask 1111110111000000
          428 200 rmoveto
          -13 0 -15 2 -16 5 rrcurveto
          28 vlineto
          9 -5 11 -1 7 0 29 0 24 20 0 38 0 24 -4 15 -12 19 -11 17 -16 9 0 27 0 2 1 2 0 2 rrcurveto
          16 14 19 4 rlineto
          -7 -4 -5 -4 0 -11 0 -34 81 -15 0 -73 rrcurveto
          -52 -47 -29 -51 vhcurveto
          34 224 rmoveto
          hintmask 1111111011000000
          -105 callsubr
          hintmask 1111110111000000
          -530 vlineto
          hintmask 1111111011000000
          -104 callsubr
          84 -384 rmoveto
          -103 callsubr
          endchar
        </CharString>
        <CharString name="uni0D86">
          226 -4 27 -24 37 164 29 58 22 57 37 -10 40 hstemhm
          33 80 203 31 12 29 -4 4 33 24 19 62 31 27 155 66 hintmask 0111101100111100
          739 201 rmoveto
          110 -27 55 -59 -41 -28 -33 -48 vhcurveto
          0 -6 0 -5 1 -4 rrcurveto
          -27 hlineto
          -1 7 0 7 0 8 rrcurveto
          69 44 42 67 91 46 -74 -128 -128 -46 -74 -91 -67 -44 42 69 vhcurveto
          0 8 0 7 1 7 rrcurveto
          27 hlineto
          -1 -4 0 -5 0 -6 rrcurveto
          -48 28 -33 41 vhcurveto
          59 27 55 110 hvcurveto
          -311 -1 rmoveto
          hintmask 0011101101111100
          -102 callsubr
          34 224 rmoveto
          hintmask 0011001110111100
          -105 callsubr
          hintmask 0011001101111100
          -530 vlineto
          hintmask 0011001110111100
          -104 callsubr
          84 -384 rmoveto
          hintmask 1011011100111100
          -103 callsubr
          endchar
        </CharString>
        <CharString name="uni0D87">
          254 -147 54 89 27 177 29 58 22 4 26 54 40 hstemhm
          33 80 203 31 12 29 -4 4 33 24 19 62 102 69 hintmask 1111111100111000
          547 339 rmoveto
          -101 callsubr
          -365 -139 rmoveto
          hintmask 1111111101111000
          -102 callsubr
          34 224 rmoveto
          hintmask 1111111110111000
          -105 callsubr
          hintmask 1111111101111000
          -530 vlineto
          hintmask 1111111110111000
          -104 callsubr
          84 -384 rmoveto
          -103 callsubr
          endchar
        </CharString>
        <CharString name="uni0D88">
          254 -148 42 102 27 177 29 58 22 6 24 54 40 hstemhm
          33 80 203 31 12 29 -4 4 33 24 19 62 105 69 hintmask 1111111100111000
          545 339 rmoveto
          -100 callsubr
          -362 -139 rmoveto
          hintmask 1111111101111000
          -102 callsubr
          34 224 rmoveto
          hintmask 1111111110111000
          -105 callsubr
          hintmask 1111111101111000
          -530 vlineto
          hintmask 1111111110111000
          -104 callsubr
          84 -384 rmoveto
          -103 callsubr
          endchar
        </CharString>
        <CharString name="uni0D89">
          -31 -160 23 122 28 41 27 24 27 100 28 97 75 hstemhm
          33 41 99 62 -27 29 102 37 -1 64 67 38 hintmask 1111111100110000
          273 13 rmoveto
          -11 0 -1 0 -12 -1 rrcurveto
          -28 vlineto
          10 1 0 0 8 0 rrcurveto
          67 41 -26 -42 -38 -36 -16 -39 -58 -11 23 20 hvcurveto
          0 12 4 11 0 6 rrcurveto
          17 -13 10 -15 -17 -17 -12 -26 -63 63 -21 62 66 75 26 59 vhcurveto
          0 39 -22 24 -33 6 89 16 71 82 0 106 rrcurveto
          155 -100 79 -160 -143 -108 -75 -136 -104 80 -63 107 vhcurveto
          hintmask 1111111011010000
          90 66 36 80 52 -32 38 -58 -44 -34 -35 -46 -40 36 -34 41 hvcurveto
          14 0 19 3 15 12 -16 -24 -41 -15 -53 0 rrcurveto
          -87 -63 53 70 105 102 48 110 120 101 -65 -113 -107 -83 -61 -99 hvcurveto
          -17 0 -17 2 -17 0 rrcurveto
          15 219 rmoveto
          27 24 -22 -28 -27 -23 -23 -28 -27 -24 22 28 27 23 23 28 hvcurveto
          endchar
        </CharString>
        <CharString name="uni0D8A">
          -96 0 73 331 27 -17 23 37 27 5 26 44 26 hstemhm
          31 35 52 26 77 26 136 26 21 52 4 26 hintmask 1101111111110000
          410 468 rmoveto
          21 17 17 21 21 17 -17 -21 -21 -17 -17 -21 vhcurveto
          -21 -17 17 21 hvcurveto
          -27 hmoveto
          -99 callsubr
          -238 70 rmoveto
          21 17 17 21 21 17 -17 -21 -21 -17 -17 -21 -21 -17 17 21 vhcurveto
          -27 hmoveto
          -99 callsubr
          52 -116 rmoveto
          -75 -42 -64 -57 0 -110 rrcurveto
          -124 93 -89 124 136 98 102 123 vhcurveto
          0 56 -17 45 -35 40 rrcurveto
          hintmask 1011111111110000
          -42 47 -55 24 -71 0 -9 0 -1 0 -5 -1 43 25 37 27 33 27 49 41 23 29 0 20 0 11 -7 7 -16 0 -35 0 -19 -64 -47 -42 rrcurveto
          -58 -52 -27 -15 -53 -28 rrcurveto
          -104 -185 rmoveto
          102 101 75 97 92 74 -58 -102 -105 -85 -76 -105 -108 -66 71 93 vhcurveto
          endchar
        </CharString>
        <CharString name="uni0D8B">
          27 -161 33 399 25 94 42 hstem
          32 77 465 29 vstem
          539 271 rmoveto
          -241 hlineto
          -124 -65 -67 -94 -140 107 -98 125 127 106 88 109 hvcurveto
          29 hlineto
          -133 -123 -97 -152 -151 -145 99 161 111 89 86 143 vhcurveto
          243 hlineto
          -3 50 -43 44 -53 0 -28 0 -19 -13 -14 -23 -8 -12 -9 -14 -25 0 rrcurveto
          -22 -16 17 20 45 46 22 63 93 70 -62 -94 hvcurveto
          0 -2 0 -1 0 -2 rrcurveto
          endchar
        </CharString>
        <CharString name="uni0D8C">
          367 -161 33 127 28 186 26 32 25 94 42 -24 25 hstemhm
          32 77 465 29 -20 29 72 27 4 28 -7 43 94 70 hintmask 1111011011011000
          655 429 rmoveto
          -98 callsubr
          hintmask 1111011001101000
          -97 callsubr
          hintmask 1111011011011000
          -96 callsubr
          -81 -158 rmoveto
          -241 hlineto
          -124 -65 -67 -94 -140 107 -98 125 hvcurveto
          hintmask 1111101101001000
          127 106 88 109 hvcurveto
          29 hlineto
          -133 -123 -97 -152 -151 -145 99 161 111 89 86 143 vhcurveto
          243 hlineto
          -3 50 -43 44 -53 0 -28 0 -19 -13 -14 -23 -8 -12 -9 -14 -25 0 rrcurveto
          -22 -16 17 20 45 46 22 63 93 70 -62 -94 hvcurveto
          0 -2 0 -1 0 -2 rrcurveto
          endchar
        </CharString>
        <CharString name="uni0D8D">
          270 -1 72 -72 29 -11 26 152 27 69 25 42 35 2 36 hstemhm
          31 38 -7 74 127 30 8 27 192 39 12 37 9 30 139 45 -44 61 hintmask 1001111101111100
          440 hmoveto
          -95 callsubr
          hintmask 1001111011111100
          -94 callsubr
          hintmask 1001111101111100
          -93 callsubr
          -78 310 rmoveto
          -92 callsubr
          280 -68 rmoveto
          -91 callsubr
          hintmask 0101111001111110
          -57 39 -50 59 vhcurveto
          hintmask 0011111001111110
          -90 callsubr
          hintmask 0101111001111101
          -89 callsubr
          170 -47 rmoveto
          -88 callsubr
          hintmask 0011111001111110
          -87 callsubr
          hintmask 0101111001111101
          -86 callsubr
          endchar
        </CharString>
        <CharString name="uni0D8E">
          516 -1 72 -72 29 -11 26 152 27 69 25 42 35 2 36 hstemhm
          31 38 -7 74 127 30 8 27 192 39 12 37 9 30 139 45 -44 61 15 30 139 45 -44 61 hintmask 010111100111110011000000
          888 242 rmoveto
          -85 callsubr
          hintmask 001111100111110011000000
          -90 callsubr
          hintmask 010111100111110010100000
          -89 callsubr
          170 -47 rmoveto
          -88 callsubr
          hintmask 001111100111110011000000
          -87 callsubr
          hintmask 010111100111110010100000
          -86 callsubr
          -593 -195 rmoveto
          98 70 58 108 hvcurveto
          0 55 -31 53 -47 23 15 9 14 23 0 21 rrcurveto
          58 -49 24 -54 -75 -48 -57 -84 vhcurveto
          0 -4 0 -1 0 -4 38 7 29 2 32 0 rrcurveto
          76 63 -36 -80 hvcurveto
          hintmask 100111110111110010000000
          -60 -51 -44 -69 -62 -61 25 56 vhcurveto
          30 -27 -30 vlineto
          -50 -53 -31 -56 -70 -53 45 59 80 74 36 69 vhcurveto
          29 0 37 -6 15 -3 0 6 0 5 0 3 rrcurveto
          73 -38 63 -88 vhcurveto
          hintmask 100111101111110010000000
          -94 callsubr
          hintmask 100111110111110010000000
          -92 -86 -55 -107 -78 57 -77 95 hvcurveto
          68 0 41 31 21 52 19 -51 43 -31 65 0 rrcurveto
          -78 310 rmoveto
          -92 callsubr
          280 -68 rmoveto
          -91 callsubr
          hintmask 010111100111111010000000
          -57 39 -50 59 vhcurveto
          hintmask 001111100111111010000000
          -90 callsubr
          hintmask 010111100111110110000000
          -89 callsubr
          170 -47 rmoveto
          -88 callsubr
          hintmask 001111100111111010000000
          -87 callsubr
          hintmask 010111100111110110000000
          -86 callsubr
          endchar
        </CharString>
        <CharString name="uni0D91">
          -29 0 71 206 25 57 36 0 36 hstemhm
          45 37 181 32 -12 30 200 32 hintmask 11011101
          513 267 rmoveto
          -84 callsubr
          hintmask 11101101
          -83 callsubr
          hintmask 11011101
          -82 callsubr
          hintmask 11101011
          -81 callsubr
          -384 10 rmoveto
          -80 callsubr
          323 163 rmoveto
          -79 callsubr
          endchar
        </CharString>
        <CharString name="uni0D92">
          -29 0 71 206 25 57 36 0 36 89 25 hstemhm
          45 37 181 32 -12 30 128 28 44 32 10 41 hintmask 1100110011100000
          469 691 rmoveto
          21 -17 65 -24 0 -56 0 -36 -23 -13 -30 0 -11 0 -16 3 -6 3 rrcurveto
          -28 -61 rmoveto
          28 -30 0 68 rlineto
          9 -3 17 -5 24 0 47 0 30 33 0 40 0 93 -99 3 -56 47 rrcurveto
          72 -469 rmoveto
          -119 -81 -77 -153 -90 -107 23 86 vhcurveto
          0 26 13 26 27 17 25 16 40 12 44 0 rrcurveto
          64 hlineto
          hintmask 1101111011100000
          0 3 0 7 0 3 rrcurveto
          73 -38 69 -88 vhcurveto
          hintmask 1110111011100000
          -83 callsubr
          hintmask 1101111011100000
          -82 callsubr
          hintmask 1110110111100000
          -27 -31 -15 -36 0 -50 0 -66 37 -55 63 0 43 0 30 20 15 33 25 -36 17 -52 0 -57 rrcurveto
          -384 10 rmoveto
          -80 callsubr
          323 163 rmoveto
          -79 callsubr
          endchar
        </CharString>
        <CharString name="uni0D93">
          554 0 71 95 32 79 25 -10 30 37 36 0 36 -27 28 hstemhm
          33 43 127 33 110 33 76 36 64 29 46 37 181 32 -12 30 200 32 hintmask 1110010111111101
          1098 267 rmoveto
          -84 callsubr
          hintmask 1100100111111101
          -55 -50 -26 -47 -26 20 -10 16 hvcurveto
          22 0 10 13 7 19 rrcurveto
          hintmask 1110010111111101
          5 16 11 24 39 0 37 0 32 -39 0 -48 0 -2 0 -2 0 -2 rrcurveto
          -12 hlineto
          -37 0 -41 -12 -34 -12 -26 -5 -19 -11 -16 -14 -23 -20 -10 -32 0 -31 rrcurveto
          -119 110 -46 121 183 86 117 128 vhcurveto
          0 70 -13 48 -39 67 -36 62 -71 72 -61 33 rrcurveto
          hintmask 1110100111111011
          -81 callsubr
          -384 10 rmoveto
          -80 callsubr
          323 163 rmoveto
          -79 callsubr
          -801 -195 rmoveto
          hintmask 1101000111111001
          -78 callsubr
          348 -39 rmoveto
          hintmask 1101001111111001
          -77 callsubr
          endchar
        </CharString>
        <CharString name="uni0D94">
          0 70 154 29 36 27 94 24 121 23 hstem
          30 31 111 27 46 29 19 24 72 29 136 36 vstem
          274 363 rmoveto
          -76 callsubr
          114 -32 rmoveto
          1 -2 0 -2 0 -1 rrcurveto
          -45 -41 -28 -53 -55 -41 31 53 vhcurveto
          0 3 0 17 0 14 0 30 -8 14 -11 8 -7 5 -6 4 -19 0 rrcurveto
          -74 -44 -100 -108 -97 48 -127 118 hvcurveto
          50 0 37 15 22 40 16 -39 44 -16 41 0 rrcurveto
          137 47 127 127 177 -104 147 -184 hvcurveto
          -127 0 -68 -47 -45 -65 rrcurveto
          30 hlineto
          47 59 60 30 99 0 rrcurveto
          160 96 -122 -147 -104 -48 -111 -96 -54 -39 25 44 hvcurveto
          27 -24 -26 vlineto
          -33 -20 -38 -74 -83 -55 80 104 73 33 79 51 23 4 -14 -20 vhcurveto
          0 -9 0 -19 0 -5 rrcurveto
          -72 53 -43 71 71 51 44 62 59 -37 45 -59 -45 -32 -32 -42 -36 26 -35 47 vhcurveto
          41 0 23 29 6 13 rrcurveto
          endchar
        </CharString>
        <CharString name="uni0D95">
          0 70 154 29 36 27 94 24 59 26 71 39 hstemhm
          30 31 37 41 -13 37 9 27 46 29 19 24 72 29 135 37 hintmask 1111111011111100
          160 508 rmoveto
          -75 callsubr
          hintmask 1111111101111100
          0 11 -24 5 0 12 0 24 73 23 72 0 116 0 97 -53 33 -115 -58 68 -85 29 -108 0 rrcurveto
          -46 0 -40 -5 -33 -6 rrcurveto
          -118 -66 rmoveto
          81 38 83 13 76 0 161 0 110 -83 0 -138 0 -7 0 -8 -1 -7 rrcurveto
          38 -5 rlineto
          0 47 -7 37 -11 27 -12 134 -74 139 -208 0 -115 0 -65 -46 0 -37 rrcurveto
          hintmask 1111111011111100
          -74 callsubr
          232 -110 rmoveto
          -76 callsubr
          114 -32 rmoveto
          1 -2 0 -2 0 -1 rrcurveto
          -45 -41 -28 -53 -55 -41 31 53 vhcurveto
          0 3 0 17 0 14 0 30 -8 14 -11 8 -7 5 -6 4 -19 0 rrcurveto
          -74 -44 -100 -108 -97 48 -127 118 hvcurveto
          50 0 37 15 22 40 16 -39 44 -16 41 0 137 0 47 127 0 127 -14 10 -6 10 -16 12 rrcurveto
          -104 -48 -111 -96 -54 -39 25 44 vhcurveto
          27 -24 -26 vlineto
          -33 -20 -38 -74 -83 -55 80 104 73 33 79 51 23 4 -14 -20 vhcurveto
          0 -9 0 -19 0 -5 rrcurveto
          -72 53 -43 71 71 51 44 62 59 -37 45 -59 -45 -32 -32 -42 -36 26 -35 47 vhcurveto
          41 0 23 29 6 13 rrcurveto
          endchar
        </CharString>
        <CharString name="uni0D96">
          410 -2 28 -26 70 142 26 -14 29 36 27 90 26 124 23 hstemhm
          30 31 111 27 46 29 19 24 72 29 136 36 35 29 72 27 4 28 -7 43 94 70 hintmask 101011111111111011000000
          697 428 rmoveto
          -98 callsubr
          hintmask 101011111111111101000000
          -97 callsubr
          hintmask 101011111111111011000000
          -96 callsubr
          -388 -65 rmoveto
          -76 callsubr
          114 -32 rmoveto
          1 -2 0 -2 0 -1 rrcurveto
          hintmask 010111111111111001000000
          -45 -41 -28 -53 -55 -41 31 53 vhcurveto
          0 3 0 17 0 14 0 30 -8 14 -11 8 -7 5 -6 4 -19 0 rrcurveto
          -74 -44 -100 -108 -97 48 -127 118 hvcurveto
          50 0 37 15 22 40 16 -39 44 -16 41 0 rrcurveto
          137 47 127 127 177 -102 148 -188 hvcurveto
          -127 0 -66 -48 -45 -65 rrcurveto
          31 hlineto
          47 59 59 31 99 0 rrcurveto
          160 96 -123 -147 -104 -48 -111 -96 -54 -39 25 44 hvcurveto
          27 -24 -26 vlineto
          -33 -20 -38 -74 -83 -55 80 104 73 33 79 51 23 4 -14 -20 vhcurveto
          0 -9 0 -19 0 -5 rrcurveto
          -72 53 -43 71 71 51 44 62 59 -37 45 -59 -45 -32 -32 -42 -36 26 -35 47 vhcurveto
          41 0 23 29 6 13 rrcurveto
          endchar
        </CharString>
        <CharString name="uni0D9A">
          122 -1 72 -72 27 47 27 188 25 55 66 -42 41 hstemhm
          21 26 -18 77 89 30 56 26 167 41 134 52 hintmask 1011010111110000
          106 323 rmoveto
          -73 callsubr
          hintmask 1011101011110000
          -35 -48 -45 -93 -8 -69 rrcurveto
          26 -11 rlineto
          3 40 15 22 22 0 33 0 -3 -74 87 0 42 0 33 23 17 41 21 -43 34 -21 46 0 rrcurveto
          85 33 69 58 122 -90 65 -120 hvcurveto
          -27 0 -34 -1 -30 -8 47 43 66 21 73 0 rrcurveto
          134 115 -83 -132 hvcurveto
          hintmask 0111100111110000
          -73 -43 -54 -52 vhcurveto
          -22 0 -17 5 -9 7 rrcurveto
          -2 -26 rlineto
          19 -13 17 0 10 0 rrcurveto
          108 43 111 82 136 -98 106 -150 hvcurveto
          -87 0 -82 -33 -59 -55 rrcurveto
          4 vlineto
          hintmask 1011010111110000
          -72 callsubr
          72 -54 rmoveto
          25 12 41 7 57 0 rrcurveto
          103 70 -46 -83 -36 -20 -52 -62 -58 -27 26 65 hvcurveto
          1 -26 -1 vlineto
          -60 -31 -31 -51 vhcurveto
          -57 0 -24 29 -29 0 -7 0 -6 -2 -6 -3 11 37 19 39 29 41 16 23 16 19 17 15 rrcurveto
          endchar
        </CharString>
        <CharString name="uni0D9B">
          6 -1 30 -29 67 -13 62 -1 30 175 76 180 25 hstemhm
          32 31 116 31 157 46 133 38 hintmask 1001111111000000
          93 72 rmoveto
          24 19 19 24 24 19 -19 -24 -24 -19 -19 -24 vhcurveto
          -24 -19 19 24 hvcurveto
          -21 29 rmoveto
          -71 callsubr
          hintmask 0010111111000000
          42 55 26 20 13 0 rrcurveto
          hintmask 0100111111000000
          27 0 4 -54 64 0 rrcurveto
          108 60 150 136 187 -120 128 -166 hvcurveto
          -112 0 -77 -48 -45 -83 rrcurveto
          33 hlineto
          42 73 66 33 89 0 rrcurveto
          151 101 -109 -166 -103 -46 -131 -66 hvcurveto
          hintmask 1010111111000000
          -44 0 -6 49 -29 0 -3 0 -3 0 -3 -1 39 38 28 48 0 57 rrcurveto
          85 -80 53 -93 -116 -92 -74 -139 -75 24 -109 85 39 30 38 35 vhcurveto
          hintmask 0001111111000000
          -70 callsubr
          endchar
        </CharString>
        <CharString name="uni0D9C">
          -2 73 -72 25 193 24 130 60 -23 23 hstemhm
          34 35 147 25 77 34 191 43 hintmask 1010111110000000
          233 408 rmoveto
          -3 0 -5 0 -3 0 rrcurveto
          -86 -67 -76 -102 -83 48 -76 89 59 53 28 59 38 -20 21 -31 hvcurveto
          -7 0 -10 -2 -7 -5 -1 -6 -1 -9 0 -3 rrcurveto
          -25 hlineto
          hintmask 0111011110000000
          10 125 62 115 122 0 rrcurveto
          112 64 -100 -115 -122 -86 -96 -131 hvcurveto
          -10 0 -10 1 -11 1 rrcurveto
          25 vlineto
          8 -1 8 -1 8 0 rrcurveto
          107 74 76 100 101 -59 70 -91 hvcurveto
          -77 0 -53 -58 -16 -77 8 4 8 1 7 0 rrcurveto
          48 34 -39 -66 hvcurveto
          hintmask 1010111110000000
          -80 -57 -58 -87 -111 -63 98 111 123 75 102 111 vhcurveto
          4 0 5 -1 4 0 rrcurveto
          endchar
        </CharString>
        <CharString name="uni0D9D">
          53 -1 72 100 29 83 25 -17 25 77 39 hstemhm
          51 38 153 30 9 32 78 29 120 39 14 35 hintmask 1110111111100000
          216 283 rmoveto
          97 hlineto
          0 3 0 7 0 3 rrcurveto
          73 -38 63 -88 -55 -50 -26 -47 -26 20 -10 16 vhcurveto
          22 0 10 13 6 19 6 16 11 24 39 0 37 0 32 -35 0 -48 0 -2 0 0 0 -2 rrcurveto
          -12 hlineto
          -37 0 -54 -11 -34 -12 -52 -16 -41 -43 0 -72 0 -78 57 -77 91 0 19 0 28 3 31 9 3 6 1 11 0 7 0 34 -9 2 0 35 rrcurveto
          47 34 18 26 35 24 -29 -34 vhcurveto
          0 -30 -13 -14 0 -34 0 -7 1 -6 3 -5 31 -8 27 -4 24 0 92 0 72 58 0 108 0 55 -31 53 -47 23 15 9 14 23 0 21 rrcurveto
          58 -49 24 -54 -75 -48 -57 -84 vhcurveto
          0 -4 0 -1 0 -4 rrcurveto
          hintmask 1101111111100000
          33 7 26 2 36 0 rrcurveto
          93 52 -43 -70 -65 -53 -42 -69 hvcurveto
          -31 0 -19 5 -4 3 2 8 1 14 0 7 rrcurveto
          72 -55 20 -33 -37 -53 -20 -74 vhcurveto
          0 -8 1 -12 2 -10 -3 -3 -14 -2 -16 0 rrcurveto
          -70 -53 45 59 hvcurveto
          73 74 35 53 vhcurveto
          hintmask 1110111111100000
          -69 hmoveto
          162 0 -30 25 -274 0 0 -32 rlineto
          16 3 55 3 71 1 rrcurveto
          235 27 rmoveto
          -69 callsubr
          hintmask 1101111111100000
          -15 6 -31 4 -34 0 -26 0 -24 -2 -13 -4 rrcurveto
          endchar
        </CharString>
        <CharString name="uni0D9E">
          121 0 70 83 29 75 28 -5 27 100 25 126 24 hstemhm
          30 29 90 27 2 38 195 27 -20 31 213 35 hintmask 1101111110010000
          59 231 rmoveto
          27 20 22 25 25 20 -22 -27 -27 -20 -22 -25 vhcurveto
          -25 -20 22 27 hvcurveto
          603 51 rmoveto
          -122 -43 -90 -80 vhcurveto
          hintmask 1110111111010000
          -50 -51 28 46 hvcurveto
          33 -27 -33 vlineto
          -48 -49 -25 -49 -56 -41 35 54 54 43 43 92 vhcurveto
          hintmask 1101111110110000
          19 79 4 63 75 -90 33 -84 hvcurveto
          -80 0 -50 -18 -42 -33 -37 -29 -36 -48 0 -59 rrcurveto
          -40 23 -52 51 44 28 40 38 40 -30 36 -43 vhcurveto
          -8 0 -20 -3 -12 -12 16 32 23 25 23 16 44 32 53 10 54 0 rrcurveto
          49 93 -19 -62 hvcurveto
          hintmask 1110111111010000
          -32 -32 -9 -42 -106 -60 -70 -71 vhcurveto
          0 -80 56 -65 81 1 45 1 34 19 31 39 31 -38 25 -21 62 0 rrcurveto
          100 54 114 146 185 -129 137 -160 hvcurveto
          -97 0 -79 -38 -59 -76 rrcurveto
          32 hlineto
          54 60 67 30 79 0 rrcurveto
          147 110 -119 -157 hvcurveto
          endchar
        </CharString>
        <CharString name="uni0D9F">
          125 -2 73 -72 25 193 24 130 60 -23 23 hstemhm
          27 29 95 35 147 25 77 34 191 43 hintmask 1010111111000000
          350 408 rmoveto
          23 vlineto
          -4 0 -5 1 -4 0 rrcurveto
          -111 -75 -102 -123 -111 63 -98 111 87 57 58 80 66 -34 39 -48 hvcurveto
          -7 0 -8 -1 -8 -4 rrcurveto
          hintmask 0111011111000000
          16 77 53 58 77 0 rrcurveto
          91 59 -70 -101 -100 -74 -76 -107 hvcurveto
          -8 0 -8 1 -8 1 rrcurveto
          -25 vlineto
          11 -1 10 -1 10 0 rrcurveto
          131 86 96 122 115 -64 100 -112 hvcurveto
          -122 0 -62 -115 -10 -125 rrcurveto
          25 hlineto
          0 3 1 9 1 6 7 5 10 2 7 0 rrcurveto
          31 20 -21 -38 hvcurveto
          hintmask 1010111111000000
          -59 -53 -28 -59 -89 -48 76 83 102 67 76 86 vhcurveto
          3 0 5 0 3 0 rrcurveto
          -13 24 rmoveto
          -26 1 -63 0 -9 0 -139 0 -73 -80 0 -132 0 -101 42 -87 66 -33 rrcurveto
          30 vlineto
          -52 45 -27 62 0 81 0 124 64 67 136 0 17 6 43 5 21 12 rrcurveto
          endchar
        </CharString>
        <CharString name="uni0DA0">
          -27 0 71 206 25 93 36 122 24 hstemhm
          64 37 -18 74 130 32 222 34 hintmask 11110111
          319 277 rmoveto
          0 3 0 7 0 3 rrcurveto
          86 -43 56 -88 -55 -50 -26 -47 -26 20 -10 16 vhcurveto
          22 0 10 13 7 19 5 16 8 24 45 0 37 0 34 -33 0 -54 0 -2 0 -2 0 -2 rrcurveto
          -17 hlineto
          -37 0 -41 -12 -34 -12 -26 -5 -19 -11 -16 -14 rrcurveto
          hintmask 11111011
          -23 -20 -10 -32 0 -31 rrcurveto
          -119 110 -46 121 183 97 114 160 169 -112 134 -160 vhcurveto
          -98 0 -72 -37 -49 -70 rrcurveto
          32 hlineto
          45 55 63 28 79 0 rrcurveto
          134 104 -111 -142 -142 -90 -87 -153 -90 -107 23 86 hvcurveto
          0 26 13 26 27 17 25 16 40 12 44 0 rrcurveto
          -102 hmoveto
          -68 callsubr
          endchar
        </CharString>
        <CharString name="uni0DA1">
          -26 0 71 89 27 103 22 79 41 -22 25 hstemhm
          33 37 167 29 21 27 17 28 144 28 -17 35 hintmask 1110111111000000
          473 291 rmoveto
          -39 18 -46 3 -38 0 -16 0 -12 -1 -7 -1 -1 4 0 5 0 5 rrcurveto
          65 44 21 44 62 39 -24 -63 -51 -35 -85 -51 -40 -18 27 47 vhcurveto
          0 103 47 100 55 54 56 55 51 -7 0 30 0 10 -8 11 -16 0 -26 0 -35 -19 -38 -43 -45 -50 -36 -72 -19 -69 -8 -29 -6 -38 0 -35 rrcurveto
          -70 35 -32 49 82 34 108 57 77 -53 33 -72 -70 -49 -34 -82 vhcurveto
          0 -11 3 -16 2 -7 14 1 27 3 22 0 rrcurveto
          hintmask 1111011110100000
          -67 callsubr
          endchar
        </CharString>
        <CharString name="uni0DA2">
          -26 0 71 218 22 80 41 -26 28 hstemhm
          33 37 167 29 27 30 36 29 101 31 -6 35 hintmask 1110111101000000
          262 288 rmoveto
          -66 callsubr
          hintmask 1101111110000000
          -65 callsubr
          hintmask 1110111101000000
          -64 callsubr
          97 72 rmoveto
          -63 callsubr
          29 -1 rmoveto
          0 13 5 12 9 8 rrcurveto
          hintmask 1101111110000000
          -62 callsubr
          endchar
        </CharString>
        <CharString name="uni0DA3">
          463 -1 72 2 27 188 25 79 41 -27 28 122 24 hstemhm
          21 26 -18 77 89 30 56 26 167 43 -34 32 225 28 237 34 hintmask 1110010011011100
          671 398 rmoveto
          -25 0 -23 -4 -21 -7 -66 -23 -53 -76 0 -93 0 -99 55 -96 102 0 45 0 37 20 31 39 30 -39 40 -20 49 0 rrcurveto
          126 41 139 122 185 -127 134 -163 hvcurveto
          -99 0 -78 -37 -57 -75 rrcurveto
          32 hlineto
          53 59 63 29 81 0 rrcurveto
          147 114 -114 -158 -103 -42 -110 -96 -49 -50 21 64 hvcurveto
          40 -28 -40 vlineto
          -64 -51 -21 -51 vhcurveto
          hintmask 1110010011101100
          -73 -48 65 76 89 65 72 79 hvcurveto
          3 0 4 0 3 0 rrcurveto
          hintmask 1111010111001100
          -565 -50 rmoveto
          -73 callsubr
          hintmask 1110111011011100
          -35 -48 -45 -93 -8 -69 rrcurveto
          26 -11 rlineto
          3 40 15 22 22 0 33 0 -3 -74 87 0 42 0 33 23 17 41 21 -43 34 -21 46 0 rrcurveto
          85 33 69 58 122 -90 65 -120 hvcurveto
          -27 0 -34 -1 -30 -8 rrcurveto
          hintmask 1110110111101100
          47 43 81 59 132 0 44 0 52 -4 44 -12 rrcurveto
          57 8 rlineto
          -29 16 -67 20 -100 0 -104 0 -90 -37 -56 -51 rrcurveto
          4 vlineto
          hintmask 1111010111001100
          -72 callsubr
          72 -54 rmoveto
          25 12 41 7 57 0 rrcurveto
          hintmask 1110010011101100
          -61 callsubr
          endchar
        </CharString>
        <CharString name="uni0DA4">
          400 -238 28 208 28 -27 72 2 27 194 23 75 41 -26 26 hstemhm
          27 29 90 26 -18 77 89 30 56 26 167 81 -77 37 181 57 hintmask 1101100100110110
          951 294 rmoveto
          -18 95 -43 43 -86 0 rrcurveto
          -55 -40 -24 -36 -22 13 -14 25 hvcurveto
          15 0 16 8 10 22 9 17 16 13 19 0 44 0 29 -33 10 -47 rrcurveto
          -120 hlineto
          -119 -73 -42 -106 -100 72 -70 131 hvcurveto
          27 0 23 2 35 10 -47 -63 -23 -51 0 -38 0 -58 35 -41 71 -1 22 0 18 1 14 3 rrcurveto
          28 vlineto
          -64 14 -39 25 0 67 0 76 70 67 31 35 rrcurveto
          -23 18 rlineto
          -40 -46 -37 -20 -46 0 rrcurveto
          hintmask 1101100100111010
          -83 -70 62 84 84 46 38 88 hvcurveto
          -80 118 rmoveto
          hintmask 1001101101110010
          -23 7 -29 14 -90 0 -87 0 -84 -28 -71 -59 rrcurveto
          4 vlineto
          hintmask 1011110101110010
          49 -37 34 -52 -57 -50 -39 -54 -12 6 -31 34 vhcurveto
          15 0 15 8 7 18 7 17 -4 0 7 23 6 21 22 8 14 0 25 0 12 -23 0 -24 0 -6 -1 -10 -1 -5 -30 -27 -28 -29 -26 -36 rrcurveto
          hintmask 1011101110110110
          -35 -48 -45 -93 -8 -69 rrcurveto
          26 -11 rlineto
          3 40 15 22 22 0 33 0 -3 -74 87 0 42 0 33 23 17 41 21 -43 34 -21 46 0 rrcurveto
          85 33 69 58 122 -90 65 -120 hvcurveto
          -27 0 -34 -1 -30 -8 60 50 80 53 116 0 78 0 32 -15 10 -2 rrcurveto
          -412 -121 rmoveto
          25 12 41 7 57 0 rrcurveto
          hintmask 1011100100111010
          -61 callsubr
          -10 158 rmoveto
          hintmask 1001110100110010
          -60 callsubr
          endchar
        </CharString>
        <CharString name="uni0DA5">
          218 -238 28 208 73 -72 28 190 24 53 23 91 23 hstemhm
          27 29 78 35 146 27 76 80 -77 31 187 57 hintmask 1011111110110000
          769 294 rmoveto
          -18 95 -43 44 -86 0 rrcurveto
          -55 -40 -25 -36 -21 13 -15 25 hvcurveto
          15 0 16 8 10 22 9 18 16 12 19 0 44 0 29 -33 10 -46 rrcurveto
          -120 hlineto
          -119 -73 -43 -105 -100 72 -70 131 hvcurveto
          27 0 23 1 35 10 -47 -63 -23 -50 0 -39 0 -57 35 -41 71 -2 22 0 18 1 14 3 rrcurveto
          28 vlineto
          -64 15 -39 25 0 66 0 76 70 67 31 36 rrcurveto
          -23 17 rlineto
          -40 -46 -37 -19 -46 0 rrcurveto
          hintmask 1011111111010000
          -83 -70 62 84 84 46 37 88 hvcurveto
          -63 128 rmoveto
          -14 4 -14 6 -31 0 -122 0 -66 -118 -7 -122 rrcurveto
          27 hlineto
          0 3 1 9 1 6 5 4 11 3 7 0 rrcurveto
          31 20 -21 -38 hvcurveto
          hintmask 1101111110110000
          -59 -53 -28 -59 -89 -48 76 83 102 67 76 86 vhcurveto
          3 0 5 0 3 0 rrcurveto
          23 vlineto
          -4 0 -5 1 -4 0 rrcurveto
          -111 -75 -102 -123 -111 63 -98 111 87 57 58 80 66 -34 39 -48 hvcurveto
          -7 0 -8 -1 -8 -4 16 77 51 90 92 0 12 0 11 -1 9 -2 rrcurveto
          -214 32 rmoveto
          -23 1 -53 0 -9 0 -139 0 -73 -80 0 -132 0 -101 42 -87 66 -33 rrcurveto
          30 vlineto
          -52 45 -27 62 0 81 0 94 41 94 134 0 0 0 89 26 4 0 rrcurveto
          endchar
        </CharString>
        <CharString name="uni0DA6">
          75 0 71 218 22 80 41 -26 28 hstemhm
          27 29 78 37 167 29 27 30 36 29 101 31 -6 35 hintmask 1110111110100000
          363 288 rmoveto
          -66 callsubr
          hintmask 1101111111000000
          -65 callsubr
          hintmask 1110111110100000
          -64 callsubr
          97 72 rmoveto
          -63 callsubr
          29 -1 rmoveto
          0 13 5 12 10 8 rrcurveto
          hintmask 1101111111000000
          9 10 12 4 13 0 15 0 13 -5 10 -11 9 -10 5 -12 0 -13 0 -13 -5 -12 -9 -8 -10 -10 -12 -4 -13 0 -14 0 -12 5 -11 9 rrcurveto
          -10 10 -5 12 0 15 rrcurveto
          -196 68 rmoveto
          -60 callsubr
          endchar
        </CharString>
        <CharString name="uni0DA7">
          -21 -1 72 294 26 162 24 hstem
          32 34 457 34 vstem
          66 218 rmoveto
          -102 110 -45 100 142 105 78 147 136 -107 121 -141 vhcurveto
          -80 0 -62 -28 -43 -55 rrcurveto
          -33 hlineto
          47 69 73 38 96 0 rrcurveto
          173 111 -144 -162 -156 -110 -116 -162 -152 -101 82 127 115 94 68 106 hvcurveto
          27 0 33 -5 29 -11 rrcurveto
          -29 vlineto
          -27 13 -28 6 -32 0 rrcurveto
          -86 -82 -51 -96 hvcurveto
          endchar
        </CharString>
        <CharString name="uni0DA8">
          -10 0 71 296 36 hstemhm
          33 34 223 28 -2 30 209 34 hintmask 11101100
          589 232 rmoveto
          0 75 -24 64 -39 67 -36 62 -71 72 -61 33 -27 -31 -15 -36 0 -50 0 -66 37 -55 63 0 43 0 30 20 15 33 21 -32 30 -70 0 -71 rrcurveto
          -89 -42 -87 -96 vhcurveto
          hintmask 11110100
          -49 -50 21 64 hvcurveto
          40 -28 -40 vlineto
          -64 -51 -21 -51 -73 -48 65 76 89 65 72 79 vhcurveto
          3 0 4 0 3 0 rrcurveto
          25 vlineto
          -25 0 -23 -4 -21 -7 -66 -23 -53 -76 0 -93 0 -99 55 -96 102 0 45 0 37 20 31 39 30 -39 40 -20 49 0 rrcurveto
          126 41 130 102 hvcurveto
          -104 216 rmoveto
          -10 -34 -28 -11 -24 0 rrcurveto
          hintmask 11101100
          -57 -20 40 49 hvcurveto
          0 35 9 23 12 18 38 -28 50 -46 30 -46 rrcurveto
          endchar
        </CharString>
        <CharString name="uni0DA9">
          23 0 71 217 27 76 41 124 26 hstem
          46 38 215 27 236 36 vstem
          76 374 rmoveto
          40 47 18 42 vhcurveto
          84 0 45 -58 1 -86 rrcurveto
          -75 hlineto
          -93 -44 -58 -56 -52 40 -51 75 49 52 24 48 hvcurveto
          35 27 -35 vlineto
          -46 48 -26 50 96 42 96 106 155 -106 128 -158 vhcurveto
          -80 0 -65 -31 -47 -57 rrcurveto
          -33 hlineto
          54 78 83 36 94 0 rrcurveto
          175 119 -138 -186 -132 -51 -126 -119 hvcurveto
          -65 0 -28 29 -22 30 -30 -37 -33 -22 -51 0 -101 0 -52 81 0 81 0 50 25 52 54 24 rrcurveto
          -110 27 246 hlineto
          -3 43 -30 33 -30 0 -18 0 -15 -4 -14 -24 -11 -19 -13 -5 -14 0 rrcurveto
          -20 -17 14 21 hvcurveto
          endchar
        </CharString>
        <CharString name="uni0DAA">
          23 0 71 217 27 48 30 -2 41 hstemhm
          46 38 215 27 -8 29 214 37 hintmask 11101011
          359 603 rmoveto
          -11 -17 -30 -45 0 -64 0 -66 38 -48 66 0 49 0 27 32 17 29 27 -46 19 -55 0 -60 rrcurveto
          -104 -41 -88 -96 vhcurveto
          hintmask 11011101
          -50 -48 26 46 hvcurveto
          35 -27 -35 vlineto
          -48 -52 -24 -49 -75 -40 51 52 56 44 58 93 vhcurveto
          72 hlineto
          -1 86 -45 58 -84 0 rrcurveto
          -42 -47 -18 -40 -21 17 -14 20 hvcurveto
          hintmask 11101011
          14 0 13 5 11 19 rrcurveto
          hintmask 11011011
          14 24 15 4 18 0 30 0 30 -33 3 -43 rrcurveto
          -243 -27 110 hlineto
          -54 -24 -25 -52 0 -50 0 -81 52 -81 101 0 51 0 33 22 30 37 22 -30 29 -29 62 0 127 0 45 123 0 126 rrcurveto
          0 158 -125 151 -114 45 rrcurveto
          138 -152 rmoveto
          hintmask 11101011
          -12 -27 -25 -31 -36 0 -48 0 -29 29 0 59 0 34 14 37 12 14 32 -16 52 -41 40 -58 rrcurveto
          endchar
        </CharString>
        <CharString name="uni0DAB">
          339 -1 35 -34 73 -37 31 89 37 -30 19 -1 27 48 29 24 39 60 25 37 57 hstemhm
          170 29 68 29 122 29 102 29 133 23 118 63 hintmask 0100011111111111
          350 73 rmoveto
          -156 0 -18 135 -61 0 163 93 214 107 191 35 68 12 48 10 29 5 23 5 12 10 0 15 0 18 -12 9 -23 0 -32 0 -70 -18 -73 -26 rrcurveto
          -227 -81 -213 -96 -191 -128 rrcurveto
          11 -24 rlineto
          21 14 17 13 28 0 81 0 -13 -181 198 0 rrcurveto
          155 64 114 99 177 -144 43 -81 -101 -88 -51 -99 hvcurveto
          hintmask 0001001111111111
          -75 62 -52 89 vhcurveto
          41 0 22 8 21 14 rrcurveto
          hintmask 0100101111111111
          -83 4 rlineto
          -58 -65 31 75 72 70 48 88 125 67 -78 -93 hvcurveto
          -104 -92 -60 -107 vhcurveto
          -83 180 rmoveto
          -49 41 -41 49 49 41 41 49 49 -41 41 -49 -49 -41 -41 -49 vhcurveto
          29 1 rmoveto
          34 27 27 34 34 27 -27 -34 vhcurveto
          hintmask 0001001111111111
          -34 -27 -27 -34 -34 -27 27 34 vhcurveto
          253 -93 rmoveto
          hintmask 1010001111111111
          -69 42 -56 54 vhcurveto
          29 0 23 12 17 20 5 -35 29 -34 52 0 rrcurveto
          83 32 74 95 97 -34 83 -66 hvcurveto
          -61 0 -31 -48 -4 -49 -16 23 -25 12 -33 0 rrcurveto
          -54 -42 -56 -69 hvcurveto
          28 1 rmoveto
          52 30 42 37 45 22 -34 -60 -57 -25 -37 -42 -37 -30 42 52 vhcurveto
          161 40 rmoveto
          3 61 15 46 43 0 rrcurveto
          37 16 -64 -76 -74 -9 -61 -51 -23 -35 10 61 1 0 1 0 hvcurveto
          5 16 2 18 0 20 0 15 -1 14 -2 12 rrcurveto
          endchar
        </CharString>
        <CharString name="uni0DAC">
          107 0 71 217 27 76 42 -6 6 123 26 hstemhm
          27 29 77 38 215 27 236 36 hintmask 1110111110000000
          163 374 rmoveto
          -21 17 -14 20 vhcurveto
          14 0 13 5 11 19 14 24 15 4 18 0 30 0 30 -33 3 -43 rrcurveto
          -246 -27 110 hlineto
          -54 -24 -25 -52 0 -50 0 -81 52 -81 101 0 51 0 33 22 30 37 22 -30 28 -29 65 0 rrcurveto
          119 51 126 132 186 -119 138 -175 hvcurveto
          -94 0 -83 -36 -54 -78 rrcurveto
          33 hlineto
          47 57 65 31 80 0 rrcurveto
          158 106 -128 -155 -106 -42 -96 -96 -50 -48 26 46 hvcurveto
          35 -27 -35 vlineto
          -48 -52 -24 -49 -75 -40 51 52 56 44 58 93 vhcurveto
          75 hlineto
          -1 86 -45 58 -84 0 rrcurveto
          -42 -47 -18 -40 hvcurveto
          hintmask 1101111110000000
          130 53 rmoveto
          hintmask 1110111110000000
          -22 6 -23 0 -9 0 -139 0 -73 -80 0 -132 0 -101 42 -87 66 -33 rrcurveto
          30 vlineto
          -52 45 -27 62 0 81 0 101 46 63 75 18 rrcurveto
          17 6 78 10 21 11 rrcurveto
          endchar
        </CharString>
        <CharString name="uni0DAD">
          80 -2 75 -74 28 52 30 187 24 59 56 -47 45 hstemhm
          22 22 -7 82 60 27 211 42 151 54 hintmask 1011101011100000
          174 322 rmoveto
          -68 -70 -71 -122 -13 -105 rrcurveto
          22 -16 rlineto
          9 44 12 26 24 0 51 0 -6 -81 148 0 rrcurveto
          110 67 72 92 106 -77 52 -101 hvcurveto
          -32 0 -27 -5 -21 -9 40 49 55 24 71 0 rrcurveto
          141 102 -107 -121 hvcurveto
          hintmask 0111100111100000
          -66 -31 -58 -67 vhcurveto
          -18 0 -17 5 -17 10 rrcurveto
          -5 -26 rlineto
          19 -13 25 -4 27 0 rrcurveto
          86 52 86 100 149 -102 101 -139 hvcurveto
          -64 0 -87 -15 -66 -72 0 2 0 1 0 2 rrcurveto
          hintmask 1011010111100000
          47 -29 33 -50 -49 -41 -41 -50 -25 12 -22 26 vhcurveto
          35 0 8 31 1 30 1 20 14 12 17 0 19 0 9 -17 0 -22 rrcurveto
          0 -9 -2 -9 -3 -9 rrcurveto
          -17 -62 rmoveto
          31 24 46 12 49 0 rrcurveto
          67 67 -36 -72 -85 -76 -30 -87 hvcurveto
          -78 0 -36 36 -37 0 -11 0 -12 -2 -9 -7 21 65 34 57 31 38 rrcurveto
          endchar
        </CharString>
        <CharString name="uni0DAE">
          -10 -1 72 296 36 2 25 hstem
          33 34 238 30 196 35 vstem
          531 281 rmoveto
          -127 -98 -83 -128 -132 -106 51 120 94 81 69 97 vhcurveto
          25 vlineto
          -111 -101 -85 -110 -143 118 -93 144 155 116 104 149 hvcurveto
          0 70 -12 49 -39 67 -36 62 -71 72 -61 33 -27 -31 -15 -36 0 -50 0 -66 37 -55 63 0 43 0 30 20 15 33 21 -32 17 -50 0 -57 rrcurveto
          -57 167 rmoveto
          -79 callsubr
          endchar
        </CharString>
        <CharString name="uni0DAF">
          -168 -238 28 209 28 267 23 79 37 hstem
          31 77 141 57 vstem
          379 294 rmoveto
          -59 callsubr
          endchar
        </CharString>
        <CharString name="uni0DB0">
          14 0 71 302 25 158 24 hstem
          33 34 223 28 237 34 vstem
          221 398 rmoveto
          -25 0 -23 -4 -21 -7 -66 -23 -53 -76 0 -93 0 -99 55 -96 102 0 45 0 37 20 31 39 30 -39 40 -20 49 0 rrcurveto
          126 41 139 122 185 -127 134 -163 hvcurveto
          -99 0 -78 -37 -57 -75 rrcurveto
          32 hlineto
          53 59 63 29 81 0 rrcurveto
          147 114 -114 -158 -103 -42 -110 -96 -49 -50 21 64 hvcurveto
          40 -28 -40 vlineto
          -64 -51 -21 -51 -73 -48 65 76 89 65 72 79 vhcurveto
          3 0 4 0 3 0 rrcurveto
          endchar
        </CharString>
        <CharString name="uni0DB1">
          182 -1 28 -28 74 211 24 62 62 -47 46 hstemhm
          55 79 89 30 201 45 205 56 hintmask 1011011110000000
          266 295 rmoveto
          44 50 65 25 73 0 rrcurveto
          122 134 -77 -144 -79 -43 -44 -51 hvcurveto
          -18 0 -19 6 -18 11 rrcurveto
          -13 -22 rlineto
          22 -15 24 -7 25 0 rrcurveto
          74 73 64 120 152 -114 98 -140 hvcurveto
          -105 0 -98 -58 -50 -58 0 1 0 1 0 1 rrcurveto
          hintmask 0110111110000000
          67 -34 44 -65 -65 -34 -47 -36 -26 15 -18 24 vhcurveto
          32 0 5 25 3 16 3 20 8 20 29 0 34 0 15 -29 0 -34 0 -13 -2 -13 -7 -11 -82 -77 -8 -93 -61 0 -10 0 -12 3 -14 6 rrcurveto
          40 -83 83 -42 126 0 rrcurveto
          122 100 54 116 80 -69 59 -84 hvcurveto
          -28 0 -25 -4 -26 -9 rrcurveto
          72 -11 rmoveto
          61 55 -38 -56 -80 -80 -38 -110 hvcurveto
          -59 0 -52 10 -46 20 73 42 -20 140 178 0 rrcurveto
          endchar
        </CharString>
        <CharString name="uni0DB3">
          -98 -238 28 209 28 267 23 79 37 -28 26 hstemhm
          23 29 51 77 141 57 hintmask 11110111
          451 294 rmoveto
          -59 callsubr
          -70 124 rmoveto
          hintmask 11101111
          -13 8 -19 6 -21 0 rrcurveto
          -101 -67 -84 -129 -124 52 -71 114 hvcurveto
          -42 31 rlineto
          -67 13 -28 69 0 78 0 119 55 71 83 0 9 0 14 -2 10 -5 1 0 20 20 0 0 rrcurveto
          endchar
        </CharString>
        <CharString name="uni0DB4">
          -8 0 71 231 25 68 38 -28 28 hstemhm
          31 38 -14 83 107 30 46 32 152 36 -1 34 hintmask 1101101101000000
          439 433 rmoveto
          -58 callsubr
          hintmask 1110011100000000
          -57 callsubr
          hintmask 1101101101000000
          -56 callsubr
          hintmask 1101001110000000
          -55 callsubr
          50 -118 rmoveto
          -54 callsubr
          endchar
        </CharString>
        <CharString name="uni0DB5">
          -45 0 71 213 25 50 36 0 36 hstemhm
          33 37 179 32 -10 30 200 32 hintmask 11011101
          501 267 rmoveto
          -119 -81 -77 -153 -90 -107 23 86 66 58 38 93 vhcurveto
          60 hlineto
          0 3 0 7 0 3 rrcurveto
          67 -36 68 -88 vhcurveto
          hintmask 11101101
          -83 callsubr
          hintmask 11011101
          6 16 11 24 39 0 37 0 30 -37 0 -43 0 -2 0 -2 0 -2 rrcurveto
          -20 hlineto
          -113 -83 -40 -104 -119 110 -46 121 183 86 117 128 hvcurveto
          0 70 -13 48 -39 67 -36 62 -71 72 -61 33 rrcurveto
          hintmask 11101011
          -81 callsubr
          -61 173 rmoveto
          -79 callsubr
          endchar
        </CharString>
        <CharString name="uni0DB6">
          -5 -2 66 -65 28 98 28 167 76 165 24 hstemhm
          33 31 135 30 44 31 84 35 107 45 hintmask 0111111111000000
          101 76 rmoveto
          26 23 23 26 26 23 -23 -26 -26 -23 -23 -26 vhcurveto
          -26 -23 23 26 hvcurveto
          -24 15 rmoveto
          -8 15 -5 30 0 26 rrcurveto
          105 82 53 91 72 79 -24 -59 vhcurveto
          0 -81 -115 30 0 -92 rrcurveto
          hintmask 1011111111000000
          -59 48 -37 60 137 57 143 143 181 -105 120 -178 vhcurveto
          -113 0 -80 -43 -35 -72 rrcurveto
          30 hlineto
          39 60 65 31 94 0 rrcurveto
          150 88 -103 -145 -111 -68 -138 -111 -31 -16 12 25 hvcurveto
          0 66 119 -41 0 131 rrcurveto
          88 -84 51 -92 -127 -87 -82 -127 vhcurveto
          hintmask 0111111111000000
          -96 35 -92 82 40 39 30 48 42 -36 34 -43 vhcurveto
          -41 0 -28 -27 -4 -35 rrcurveto
          endchar
        </CharString>
        <CharString name="uni0DB7">
          46 -1 28 -28 73 140 25 41 25 59 70 -49 49 hstemhm
          49 37 136 33 0 22 69 36 191 48 hintmask 0011001001100000
          140 278 rmoveto
          31 0 41 25 -206 0 0 -32 rlineto
          16 3 47 3 71 1 rrcurveto
          hintmask 0111011011100000
          137 -96 rmoveto
          7 21 14 9 13 0 rrcurveto
          20 15 -17 -31 -64 -56 -28 -66 -74 -64 34 69 70 77 35 66 hvcurveto
          4 0 10 0 12 -2 -1 82 -41 72 -79 0 rrcurveto
          -56 -29 -38 -30 -23 13 -14 20 hvcurveto
          21 0 13 13 6 16 6 15 12 12 20 0 rrcurveto
          hintmask 0111101101100000
          38 24 -38 -42 hvcurveto
          -4 0 4 0 -4 0 rrcurveto
          -70 -99 -50 -98 -94 70 -62 98 95 70 54 92 54 -28 38 -38 hvcurveto
          -9 0 -10 -2 -10 -6 22 89 48 44 73 0 rrcurveto
          91 52 -74 -95 hvcurveto
          hintmask 1011101011100000
          -100 -70 -67 -99 vhcurveto
          -12 0 -12 1 -12 2 rrcurveto
          -27 vlineto
          14 -2 14 -1 13 0 rrcurveto
          123 89 93 119 118 -63 103 -112 hvcurveto
          -101 0 -81 -115 -9 -125 rrcurveto
          endchar
        </CharString>
        <CharString name="uni0DB8">
          7 0 71 115 32 53 32 102 27 128 26 hstem
          33 35 105 31 29 31 98 27 12 30 119 35 vstem
          264 352 rmoveto
          27 22 22 27 27 22 -22 -27 -27 -22 -22 -27 -27 -22 22 27 vhcurveto
          -154 117 rmoveto
          48 62 64 29 81 0 rrcurveto
          141 106 -116 -137 -141 -100 -95 -142 -135 -105 63 133 79 38 59 48 22 4 -14 -12 hvcurveto
          0 -31 -7 -14 0 -39 rrcurveto
          -79 69 -30 60 73 56 51 69 76 -44 50 -69 -48 -37 -35 -46 -36 29 -44 51 48 28 35 37 vhcurveto
          0 8 0 5 -2 10 5 -7 9 -17 0 -28 rrcurveto
          -59 -41 -37 -60 -55 -41 29 55 vhcurveto
          0 36 5 8 0 27 rrcurveto
          25 -4 34 -49 -77 -46 -93 -89 -156 110 -94 167 165 110 110 182 162 -123 132 -160 vhcurveto
          -93 0 -82 -42 -49 -75 rrcurveto
          endchar
        </CharString>
        <CharString name="uni0DB9">
          0 72 99 29 24 29 36 27 90 26 124 23 hstemhm
          30 31 111 27 30 30 -14 29 104 29 -18 29 136 36 hintmask 1111111110101000
          438 72 rmoveto
          -22 0 -8 4 -4 3 2 8 1 14 0 7 rrcurveto
          72 -55 20 -33 -37 -53 -20 -74 vhcurveto
          0 -8 1 -12 2 -10 -3 -3 -14 -3 -16 0 rrcurveto
          -83 -55 80 104 73 33 79 51 23 4 -14 -20 hvcurveto
          0 -9 0 -19 0 -5 rrcurveto
          -72 53 -43 71 vhcurveto
          hintmask 1111111101011000
          71 51 44 62 59 -37 45 -59 -45 -32 -32 -42 -36 26 -35 47 hvcurveto
          41 0 23 29 6 13 1 -2 0 -2 0 -1 rrcurveto
          -45 -41 -28 -53 -55 -41 31 53 vhcurveto
          0 3 0 17 0 14 0 30 -8 14 -11 8 -7 5 -6 4 -19 0 rrcurveto
          -74 -44 -100 -108 -97 48 -127 118 hvcurveto
          19 0 34 3 26 14 rrcurveto
          hintmask 1111111110101000
          0 27 -16 25 0 37 rrcurveto
          47 34 18 26 35 24 -29 -34 vhcurveto
          0 -38 -19 -22 0 -31 21 -13 19 -4 24 0 rrcurveto
          116 51 127 127 177 -102 148 -188 hvcurveto
          -127 0 -66 -48 -45 -65 rrcurveto
          31 hlineto
          47 59 59 31 99 0 rrcurveto
          160 96 -123 -147 hvcurveto
          -104 -47 -110 -69 vhcurveto
          hintmask 1111111101001000
          -164 291 rmoveto
          26 21 21 26 26 21 -21 -26 -26 -21 -21 -26 vhcurveto
          -26 -21 21 26 hvcurveto
          endchar
        </CharString>
        <CharString name="uni0DBA">
          -1 72 229 25 37 27 8 36 hstemhm
          30 34 231 27 -1 29 169 39 -3 37 hintmask 1111100010000000
          251 387 rmoveto
          -9 1 -9 1 -10 0 rrcurveto
          -117 -76 -84 -120 -103 55 -83 101 hvcurveto
          58 0 40 24 23 48 20 -46 43 -26 66 0 92 0 64 72 0 96 0 61 -28 49 -43 26 rrcurveto
          hintmask 1111101100000000
          27 9 10 26 0 19 rrcurveto
          52 -47 24 -60 -84 -46 -44 -79 vhcurveto
          hintmask 1111110010000000
          0 -7 0 -7 1 -7 27 7 29 4 30 0 rrcurveto
          86 61 -28 -86 -66 -38 -49 -82 -57 -56 27 49 hvcurveto
          29 -27 -30 vlineto
          -49 -53 -26 -49 -75 -54 55 86 86 66 64 89 vhcurveto
          11 0 10 -1 11 -2 rrcurveto
          hintmask 1111101100000000
          99 -40 rmoveto
          3 54 39 24 59 0 35 0 33 -15 0 -32 0 -16 -9 -14 -13 -6 -22 7 -29 4 -36 0 rrcurveto
          -20 0 -24 -2 -16 -4 rrcurveto
          endchar
        </CharString>
        <CharString name="uni0DBB">
          -96 0 73 338 196 hstem
          31 35 364 52 vstem
          169 415 rmoveto
          -75 -33 -63 -59 0 -110 rrcurveto
          -124 93 -89 124 136 98 102 123 vhcurveto
          0 56 -17 45 -35 40 -39 44 -51 22 -49 2 44 12 70 33 37 21 61 35 23 29 0 25 0 11 -10 7 -13 0 -29 0 -12 -44 -51 -37 rrcurveto
          -87 -64 -98 -22 -57 -25 rrcurveto
          -103 -178 rmoveto
          102 101 72 97 92 74 -55 -102 -105 -85 -76 -105 -108 -66 71 93 vhcurveto
          endchar
        </CharString>
        <CharString name="uni0DBD">
          46 -154 43 282 45 66 26 96 28 hstemhm
          31 76 261 28 179 36 -17 30 hintmask 11111110
          265 308 rmoveto
          -26 103 vlineto
          -70 49 -41 68 68 58 39 70 113 -123 39 -124 -195 -138 -109 -188 -193 149 -96 181 vhcurveto
          hintmask 11111101
          139 124 82 142 hvcurveto
          0 5 0 4 0 5 rrcurveto
          -34 hlineto
          2 -4 2 -8 0 -6 rrcurveto
          -116 -106 -61 -107 -161 -113 105 167 138 113 105 150 vhcurveto
          hintmask 11111110
          119 86 -31 -79 -49 -34 -29 -55 -48 -42 26 36 hvcurveto
          0 1 0 2 0 1 rrcurveto
          122 26 hlineto
          endchar
        </CharString>
        <CharString name="uni0DC0">
          -27 0 71 209 24 91 36 122 24 hstemhm
          33 35 -12 74 130 32 222 34 hintmask 11110111
          292 280 rmoveto
          0 3 0 4 0 3 rrcurveto
          86 -43 56 -88 -55 -50 -26 -47 -26 20 -10 16 vhcurveto
          22 0 10 13 6 19 6 16 8 24 45 0 37 0 34 -33 0 -54 0 -2 0 0 0 -2 rrcurveto
          -61 hlineto
          hintmask 11111011
          -101 -65 -54 -85 -119 113 -46 121 183 98 114 160 169 -112 134 -160 hvcurveto
          -98 0 -72 -37 -49 -70 rrcurveto
          32 hlineto
          45 55 63 28 79 0 rrcurveto
          134 104 -111 -142 -142 -91 -87 -153 -90 -112 23 86 65 60 35 74 hvcurveto
          endchar
        </CharString>
        <CharString name="uni0DC1">
          7 -3 30 -28 71 -46 29 105 26 34 24 128 62 -24 24 hstemhm
          34 33 141 25 76 34 24 31 136 48 hintmask 0101101111110000
          251 408 rmoveto
          23 vlineto
          -3 1 -10 0 -4 0 rrcurveto
          -127 -73 -98 -128 -114 57 -93 107 91 54 63 76 70 -33 34 -48 hvcurveto
          -7 0 -8 -1 -7 -3 rrcurveto
          hintmask 1001110111110000
          12 76 55 56 76 0 93 0 58 -98 0 -96 -11 4 -22 4 -17 0 rrcurveto
          -71 -46 -46 -63 -39 23 -39 37 hvcurveto
          hintmask 0011110111110000
          38 0 10 27 21 0 7 0 4 -3 0 -7 0 -4 -2 -4 -3 -5 rrcurveto
          27 hlineto
          29 36 24 91 0 68 0 116 -59 120 -124 0 -123 0 -54 -104 -14 -136 rrcurveto
          25 hlineto
          1 5 1 9 2 5 8 6 8 1 6 0 rrcurveto
          31 19 -21 -40 hvcurveto
          hintmask 0101101111110000
          -57 -55 -30 -52 -90 -45 76 84 110 73 68 98 vhcurveto
          4 0 5 0 4 0 rrcurveto
          268 -366 rmoveto
          hintmask 0011100111110000
          -3 7 -8 4 -8 0 rrcurveto
          hintmask 1001100111110000
          -20 0 -22 -26 -25 0 rrcurveto
          -25 -10 24 28 46 34 33 50 hvcurveto
          21 0 17 -3 14 -8 0 -28 -3 -46 -12 -31 rrcurveto
          endchar
        </CharString>
        <CharString name="uni0DC2">
          -26 0 71 64 26 71 22 48 25 68 38 -28 28 hstemhm
          31 38 -14 83 34 30 43 30 46 32 49 30 73 36 -1 34 hintmask 1111011011110100
          439 433 rmoveto
          -58 callsubr
          hintmask 1111100111110000
          -57 callsubr
          hintmask 1111011011110100
          -56 callsubr
          hintmask 1111010011111000
          -55 callsubr
          50 -118 rmoveto
          -54 callsubr
          12 -26 rmoveto
          -32 7 rlineto
          -9 -9 -32 -19 -39 -7 -31 -6 -47 -1 -23 0 rrcurveto
          -96 -20 -28 -28 -49 68 -14 56 79 57 17 45 hvcurveto
          0 19 -14 15 -19 9 41 8 39 20 22 21 rrcurveto
          -203 -57 rmoveto
          70 34 -10 -25 -22 -35 -14 -68 -65 -32 14 23 22 31 12 65 hvcurveto
          endchar
        </CharString>
        <CharString name="uni0DC3">
          53 -1 72 212 25 -17 25 79 36 hstemhm
          51 38 -7 74 127 30 8 27 192 39 12 37 hintmask 1011101111000000
          460 hmoveto
          98 70 58 108 hvcurveto
          0 55 -31 53 -47 23 15 9 14 23 0 21 rrcurveto
          58 -49 24 -54 -75 -48 -57 -84 vhcurveto
          0 -4 0 -1 0 -4 38 7 27 2 32 0 rrcurveto
          86 55 -30 -79 -68 -51 -43 -69 -62 -61 25 56 hvcurveto
          30 -27 -30 vlineto
          -50 -53 -31 -56 -70 -53 45 59 vhcurveto
          hintmask 1101011111000000
          73 74 35 53 vhcurveto
          97 hlineto
          0 3 0 7 0 3 rrcurveto
          73 -38 63 -88 -55 -50 -26 -47 -26 20 -10 16 vhcurveto
          22 0 10 13 6 19 6 16 11 24 41 0 37 0 32 -38 0 -46 0 -2 0 1 0 -2 rrcurveto
          -14 hlineto
          -37 0 -54 -11 -34 -12 rrcurveto
          hintmask 1011101111000000
          -52 -16 -41 -43 0 -72 0 -78 57 -77 95 0 68 0 41 31 21 52 rrcurveto
          19 -51 43 -31 65 0 rrcurveto
          hintmask 1101001111000000
          -313 283 rmoveto
          162 0 -28 25 -276 0 0 -32 rlineto
          16 3 55 3 71 1 rrcurveto
          235 27 rmoveto
          -69 callsubr
          hintmask 1011001111000000
          -22 7 -24 3 -34 0 -24 0 -28 -3 -11 -3 rrcurveto
          endchar
        </CharString>
        <CharString name="uni0DC4">
          29 -1 28 -28 73 140 25 43 23 59 70 -49 49 hstemhm
          33 37 136 33 0 22 69 36 191 48 hintmask 1011101011100000
          261 182 rmoveto
          -22 10 rlineto
          9 125 81 115 101 0 rrcurveto
          112 63 -103 -118 -119 -89 -93 -123 hvcurveto
          -13 0 -14 1 -14 2 rrcurveto
          27 vlineto
          12 -2 12 -1 12 0 rrcurveto
          99 70 67 100 95 -52 74 -91 hvcurveto
          -73 0 -48 -44 -22 -89 10 6 10 2 9 0 rrcurveto
          38 28 -38 -54 hvcurveto
          hintmask 0111011101100000
          -92 -70 -54 -95 -98 -70 62 94 91 67 57 94 vhcurveto
          4 0 4 0 4 0 0 42 -24 38 -38 0 -20 0 -12 -12 -6 -15 -6 -16 -13 -13 -21 0 rrcurveto
          -20 -13 14 23 30 29 38 56 hvcurveto
          hintmask 0111101011100000
          79 0 41 -72 1 -82 -12 1 -11 1 -11 0 rrcurveto
          -80 -55 -35 -70 -69 64 -34 74 66 56 28 64 31 -15 17 -20 hvcurveto
          -13 0 -14 -9 -7 -21 rrcurveto
          endchar
        </CharString>
        <CharString name="uni0DC5">
          -153 45 151 61 167 26 107 28 hstem
          31 65 30 31 176 31 178 34 15 27 vstem
          157 276 rmoveto
          -112 86 -60 91 vhcurveto
          82 0 55 25 26 41 rrcurveto
          29 hlineto
          -24 -79 -65 -48 -103 0 rrcurveto
          -116 -92 95 136 99 61 59 73 hvcurveto
          36 0 37 -17 16 -38 18 38 42 17 36 0 rrcurveto
          87 44 -70 -91 hvcurveto
          -384 hlineto
          -42 -54 -37 -92 -154 128 -96 149 hvcurveto
          113 0 102 78 3 104 rrcurveto
          27 hlineto
          -142 -146 -85 -129 -175 -137 96 171 78 49 105 99 vhcurveto
          363 hlineto
          55 -32 51 -66 -46 -34 -37 -36 vhcurveto
          -31 hlineto
          36 -31 38 -43 -56 -46 -42 -86 vhcurveto
          endchar
        </CharString>
        <CharString name="uni0DC6">
          -17 -1 27 334 71 hstem
          33 35 212 32 212 35 vstem
          cntrmask 00111000
          296 359 rmoveto
          16 39 34 33 60 0 rrcurveto
          108 45 -115 -104 -102 -48 -111 -101 hvcurveto
          -12 0 -13 2 -13 5 rrcurveto
          26 vlineto
          11 -4 11 -2 11 0 rrcurveto
          71 48 73 97 86 -30 78 -86 -52 -44 -26 -71 hvcurveto
          -41 -32 41 vlineto
          71 -44 26 -52 -86 -30 -78 -86 -97 48 -73 71 vhcurveto
          11 0 11 2 11 4 rrcurveto
          -26 vlineto
          -13 -5 -13 -2 -12 0 rrcurveto
          -101 -48 111 102 104 45 115 108 hvcurveto
          60 0 34 -33 16 -39 rrcurveto
          endchar
        </CharString>
        <CharString name="uni0DCA">
          -622 468 28 hstem
          -140 27 86 37 vstem
          -140 348 rmoveto
          27 -17 0 147 rlineto
          15 -7 15 -3 15 0 43 0 35 30 0 44 0 92 -96 5 -54 42 rrcurveto
          27 -43 rmoveto
          47 -31 39 -20 0 -42 0 -24 -15 -25 -38 0 -13 0 -11 2 -9 5 rrcurveto
          endchar
        </CharString>
        <CharString name="uni0DCF">
          -312 -1 37 330 37 hstem
          22 27 155 66 vstem
          204 201 rmoveto
          110 -27 55 -59 -38 -31 -33 -48 vhcurveto
          0 -6 0 -5 1 -4 rrcurveto
          -27 hlineto
          -1 7 0 7 0 8 rrcurveto
          69 52 42 59 91 46 -74 -128 -128 -46 -74 -91 -67 -44 42 69 vhcurveto
          0 8 0 7 1 7 rrcurveto
          27 hlineto
          -1 -4 0 -5 0 -6 0 -48 24 -33 45 0 59 1 27 54 0 110 rrcurveto
          endchar
        </CharString>
        <CharString name="uni0DD0">
          -290 -147 54 406 26 hstem
          84 69 vstem
          3 339 rmoveto
          -101 callsubr
          endchar
        </CharString>
        <CharString name="uni0DD1">
          -288 -148 42 305 24 92 24 hstem
          90 69 vstem
          4 339 rmoveto
          -100 callsubr
          endchar
        </CharString>
        <CharString name="uni0DD2">
          -622 405 21 172 73 hstem
          -545 34 396 34 vstem
          -313 671 rmoveto
          119 113 -45 -108 hvcurveto
          0 -75 -66 -35 -77 -3 rrcurveto
          21 vlineto
          54 3 55 25 0 55 rrcurveto
          71 -109 18 -89 -89 -109 -18 -71 vhcurveto
          0 -55 55 -25 54 -3 rrcurveto
          -21 vlineto
          -77 3 -66 35 0 75 rrcurveto
          108 113 45 119 vhcurveto
          endchar
        </CharString>
        <CharString name="uni0DD3">
          -622 406 20 3 29 142 71 hstem
          -587 37 268 32 132 35 vstem
          -250 514 rmoveto
          31 30 25 36 36 30 -25 -31 -31 -30 -25 -36 -36 -30 25 31 vhcurveto
          -247 -108 rmoveto
          7 20 rlineto
          -38 9 -22 25 0 39 0 79 121 22 94 0 54 0 39 -6 11 -3 -19 -9 -32 -22 0 -45 rrcurveto
          -45 40 -41 58 56 45 40 55 103 -136 44 -117 -127 -124 -47 -107 vhcurveto
          0 -61 37 -45 53 -5 rrcurveto
          endchar
        </CharString>
        <CharString name="uni0DD4">
          -622 -235 36 118 30 hstem
          -594 35 470 33 vstem
          -56 219 rmoveto
          -33 -91 0 -327 -390 0 rlineto
          -51 -29 17 39 40 32 22 36 hvcurveto
          33 0 20 -18 9 -23 rrcurveto
          30 12 rlineto
          -19 42 -33 17 -44 0 rrcurveto
          -55 -44 -39 -59 -54 45 -32 67 hvcurveto
          426 hlineto
          endchar
        </CharString>
        <CharString name="uni0DD6">
          -622 -236 45 47 27 51 26 hstemhm
          -585 34 463 30 -22 22 hintmask 11110100
          -58 212 rmoveto
          hintmask 11111000
          -30 -63 0 -320 rlineto
          -30 35 -49 19 -43 0 -95 0 -86 -74 -84 0 rrcurveto
          -43 -33 25 37 41 33 22 40 hvcurveto
          30 0 22 -16 12 -19 rrcurveto
          28 10 rlineto
          -23 36 -32 15 -42 0 rrcurveto
          -53 -49 -40 -58 -68 56 -30 55 hvcurveto
          92 0 85 92 86 0 rrcurveto
          hintmask 11110100
          63 0 53 -48 15 -40 rrcurveto
          22 hlineto
          endchar
        </CharString>
        <CharString name="uni0DD8">
          -311 -1 29 -11 26 152 27 136 35 hstemhm
          33 30 139 45 -44 61 hintmask 10111100
          58 242 rmoveto
          -85 callsubr
          hintmask 01111100
          -90 callsubr
          hintmask 10111010
          -89 callsubr
          170 -47 rmoveto
          -88 callsubr
          hintmask 01111100
          -87 callsubr
          hintmask 10111010
          -86 callsubr
          endchar
        </CharString>
        <CharString name="uni0DD9">
          -21 0 71 95 32 94 30 82 28 hstem
          33 43 127 33 110 33 76 36 64 29 vstem
          236 245 rmoveto
          -78 callsubr
          348 -39 rmoveto
          -77 callsubr
          endchar
        </CharString>
        <CharString name="uni0DDF">
          -183 -2 28 186 26 169 25 hstemhm
          33 29 72 27 4 28 -7 43 94 70 hintmask 11111011
          105 428 rmoveto
          -98 callsubr
          hintmask 11111101
          -97 callsubr
          hintmask 11111011
          -96 callsubr
          endchar
        </CharString>
        <CharString name="uni0DF2">
          -53 -1 29 -11 26 152 27 136 35 hstemhm
          33 30 139 45 -44 61 28 30 139 45 -44 61 hintmask 1011100110000000
          317 242 rmoveto
          -85 callsubr
          hintmask 0111100110000000
          -90 callsubr
          hintmask 1011100101000000
          -89 callsubr
          170 -47 rmoveto
          -88 callsubr
          hintmask 0111100110000000
          -87 callsubr
          hintmask 1011100101000000
          -86 callsubr
          -404 47 rmoveto
          -85 callsubr
          hintmask 0111110100000000
          -90 callsubr
          hintmask 1011101100000000
          -89 callsubr
          170 -47 rmoveto
          -88 callsubr
          hintmask 0111110100000000
          -87 callsubr
          hintmask 1011101100000000
          -86 callsubr
          endchar
        </CharString>
        <CharString name="uni0DF3">
          -183 -2 28 186 26 169 25 hstemhm
          33 29 72 27 4 28 -7 43 94 70 hintmask 11111011
          105 428 rmoveto
          -98 callsubr
          hintmask 11111101
          -97 callsubr
          hintmask 11111011
          -96 callsubr
          endchar
        </CharString>
</ttFont>
